<?xml version="1.0" standalone="no"?>
<!DOCTYPE svg PUBLIC "-//W3C//DTD SVG 20010904//EN" "http://www.w3.org/TR/2001/REC-SVG-20010904/DTD/svg10.dtd">
<!-- Created using Karbon, part of Calligra: http://www.calligra.org/karbon -->
<svg xmlns="http://www.w3.org/2000/svg" xmlns:xlink="http://www.w3.org/1999/xlink" width="409.6pt" height="409.6pt">
<defs/>
<g id="layer0">
  <path id="shape0" transform="matrix(1.15837 0 0 1.15837 95.1476 47.0979)" fill="#993399" d="M294.066 33.0717L153.404 0.312036C153.348 0.298932 153.291 0.294837 153.235 0.282552C152.909 0.2113 152.577 0.154789 152.239 0.110564C152.13 0.0966409 152.021 0.0810801 151.911 0.0696142C151.51 0.0286647 151.104 0.00163798 150.69 1.13658e-16C150.682 0.000818991 150.673 0 150.665 0C150.24 0 149.824 0.0286647 149.413 0.0712522C149.314 0.0818991 149.215 0.0958219 149.116 0.108107C148.759 0.15397 148.408 0.213757 148.064 0.289923C148.021 0.299751 147.976 0.302208 147.933 0.312855L147.71 0.364451C147.702 0.366908 147.693 0.368546 147.684 0.370184L7.264 33.0717C2.965 34.0733 0 37.2895 0 40.9496L0 353.804C0 356.372 1.471 358.792 3.973 360.339C6.475 361.888 9.718 362.384 12.735 361.681L150.669 329.559L288.596 361.681C289.496 361.891 290.416 361.993 291.331 361.993C293.482 361.993 295.603 361.425 297.358 360.339C299.86 358.791 301.331 356.372 301.331 353.803L301.331 40.9496C301.331 37.2895 298.365 34.0733 294.066 33.0717ZM20 47.1354L140.665 19.0342L140.665 314.859L20 342.961ZM281.331 342.961L160.665 314.858L160.665 19.0325L281.331 47.1354Z"/>
  <path id="shape1" transform="matrix(1.15837 0 0 1.15837 304.425 105.323)" fill="#993399" d="M7.26706 16.0691L67.9291 30.1967C68.8441 30.4097 69.7641 30.5112 70.6691 30.5112C75.0251 30.5112 79.0321 28.1615 80.2831 24.5596C81.7941 20.2083 78.7121 15.6793 73.4001 14.4418L12.7381 0.314193C7.42506 -0.922483 1.89506 1.60165 0.384062 5.95131C-1.12694 10.3018 1.95506 14.8316 7.26706 16.0691Z"/>
  <path id="shape2" transform="matrix(1.15837 0 0 1.15837 304.425 152.756)" fill="#993399" d="M7.26706 16.07L67.9291 30.1976C68.8441 30.4105 69.7641 30.5121 70.6691 30.5121C75.0251 30.5121 79.0321 28.1624 80.2831 24.5605C81.7941 20.2092 78.7121 15.6802 73.4001 14.4427L12.7381 0.315063C7.42506 -0.92407 1.89506 1.60252 0.384062 5.95218C-1.12694 10.3027 1.95506 14.8325 7.26706 16.07Z"/>
  <path id="shape3" transform="matrix(1.15837 0 0 1.15837 304.427 232.451)" fill="#993399" d="M7.265 117.735L67.927 131.13C68.827 131.329 69.747 131.426 70.662 131.426C72.813 131.426 74.934 130.887 76.689 129.857C79.191 128.389 80.662 126.095 80.662 123.661L80.662 21.1603C80.662 17.69 77.696 14.6406 73.397 13.6909L12.735 0.295959C9.719 -0.369519 6.475 0.101052 3.973 1.56868C1.471 3.0363 0 5.33014 0 7.76453L0 110.265C0 113.736 2.966 116.786 7.265 117.735ZM20 18.0464L60.662 27.0253L60.662 113.38L20 104.401Z"/>
  <path id="shape4" transform="matrix(1.15837 0 0 1.15837 141.478 352.173)" fill="#993399" d="M67.9361 0.383635L7.26706 17.6346C1.95506 19.1456 -1.12694 24.6766 0.384062 29.9886C1.63406 34.3866 5.64106 37.2556 9.99806 37.2556C10.9031 37.2556 11.8241 37.1316 12.7381 36.8716L73.4071 19.6206C78.7191 18.1096 81.8011 12.5786 80.2901 7.26663C78.7791 1.95563 73.2471 -1.12637 67.9361 0.383635Z"/>
  <path id="shape5" transform="matrix(1.15837 0 0 1.15837 141.477 105.321)" fill="#993399" d="M9.99806 30.5124C10.9031 30.5124 11.8241 30.4108 12.7381 30.1979L73.4071 16.0695C78.7191 14.832 81.8011 10.3021 80.2901 5.95166C78.7801 1.60118 73.2471 -0.922952 67.9361 0.314543L7.26706 14.443C1.95506 15.6805 -1.12694 20.2103 0.384062 24.5608C1.63506 28.1627 5.64106 30.5124 9.99806 30.5124Z"/>
  <path id="shape6" transform="matrix(1.15837 0 0 1.15837 142.997 294.049)" fill="#993399" d="M67.9361 0.314193L7.26706 14.4426C1.95506 15.6801 -1.12694 20.2099 0.384062 24.5604C1.63406 28.1623 5.64106 30.512 9.99806 30.512C10.9031 30.512 11.8241 30.4105 12.7381 30.1975L73.4071 16.0691C78.7191 14.8316 81.8011 10.3018 80.2901 5.95131C78.7791 1.60165 73.2471 -0.922483 67.9361 0.314193Z"/>
  <path id="shape7" transform="translate(141.477, 235.98)" fill="#993399" d="M11.4994 35.9483C12.5403 35.9483 13.5996 35.8287 14.6507 35.5778L84.4299 18.9324C90.5395 17.4744 94.0843 12.1375 92.3464 7.01198C90.6097 1.88643 84.2458 -1.08738 78.1373 0.370582L8.35829 17.0161C2.24864 18.4741 -1.29616 23.8108 0.441733 28.9364C1.88058 33.1801 6.48813 35.9483 11.4994 35.9483Z"/>
 </g><g id="layer1"/><g id="layer2"/><g id="layer3"/><g id="layer4"/><g id="layer5"/><g id="layer6"/><g id="layer7"/><g id="layer8"/><g id="layer9"/><g id="layer10"/><g id="layer11"/><g id="layer12"/><g id="layer13"/><g id="layer14"/><g id="layer15"/>
</svg>
