<?xml version="1.0" encoding="utf-8"?>
<!-- Generator: Adobe Illustrator 13.0.0, SVG Export Plug-In . SVG Version: 6.00 Build 14948)  -->
<!DOCTYPE svg PUBLIC "-//W3C//DTD SVG 1.1//EN" "http://www.w3.org/Graphics/SVG/1.1/DTD/svg11.dtd">
<svg version="1.1" id="Calque_1" xmlns="http://www.w3.org/2000/svg" xmlns:xlink="http://www.w3.org/1999/xlink" x="0px" y="0px"
	 width="144px" height="144px" viewBox="0 0 144 144" enable-background="new 0 0 144 144" xml:space="preserve">
<g>
	<g>
		<g>
			<g>
				<path fill="#663399" d="M125.584,93.124c-3.064,8.889,0.397,32.543,0.397,32.543s-27.851-4.275-32.776-1.011"/>
				<g>
					<path fill="none" d="M125.584,93.124c-3.064,8.889,0.397,32.543,0.397,32.543s-27.851-4.275-32.776-1.011"/>
					<g>
						<path fill="#794DA6" d="M126.157,93.481c-0.015-0.25-0.324,0.023-0.089-0.19C126.194,93.368,126.283,93.444,126.157,93.481z"
							/>
						<path fill="#794DA6" d="M94.116,124.741c0.358-1.177,1.667-0.468,2.371-1.156c0.095-0.049,0.043,0.5,0.248,0.355
							c0.729-0.825,2.104-0.488,3.105,0.038l-0.056,0.144c0.19,0.095,0.409-0.384,0.613-0.327c0.003,0.094-0.062,0.137-0.014,0.265
							c0.045-0.288,0.362-0.133,0.445-0.344c0.081,0.11,0.075,0.335,0.179,0.461l0.113-0.323c0.318-0.767,0.78,0.055,1.221-0.34
							c-0.021,0.075-0.066,0.134-0.032,0.206c0.712-0.477,1.599-0.339,2.396-0.488c-0.036,0.112-0.073,0.319-0.032,0.449
							c0.053-0.338,0.3-0.415,0.516-0.475c0.08,0.354,0.379-0.307,0.62-0.102l-0.025,0.074c0.202-0.354,0.262,0.228,0.434-0.201
							l0.104,0.28c0.106-0.486,0.252,0.271,0.417,0.03l0.001-0.102c0.15-0.11,0.211,0.141,0.349,0.065l0.009,0.058
							c0.319-0.109,0.483,0.174,0.5-0.21c0.09,0.314-0.311,0.122-0.167,0.581c1.047-0.344,2.098-0.177,3.126-0.104
							c0.104,0.163,0.175,0.216,0.188,0.364c0.109-0.07,0.393-0.041,0.502-0.229c-0.035,0.005,0.05,0.201,0.103,0.225
							c0.174,0.159,0.24-0.402,0.431-0.212c-0.091,0.094-0.129,0.215-0.114,0.36c0.201-0.283,0.431-0.213,0.646-0.29
							c-0.038,0.061-0.092,0.095-0.095,0.216c0.257-0.317,0.405,0.11,0.623-0.085l-0.095,0.214c0.293,0.298,0.138-0.453,0.398-0.269
							c-0.073,0.063-0.058,0.152-0.078,0.241c0.296-0.378,0.699-0.205,0.97-0.317l-0.021,0.09c0.285-0.025,0.564,0.133,0.89-0.01
							c0.102,0.11-0.092,0.535,0.212,0.484c0.035-0.443,0.521-0.128,0.399-0.647c0.245,0.1,0.627,0.309,0.812,0.176
							c-0.132,0.156,0.064,0.554-0.149,0.569l0.129,0.285c-0.044,0.179-0.156-0.079-0.131,0.155
							c0.106-0.008,0.432-0.149,0.518-0.067c0.225-0.252,0.46-0.735,0.782-0.755c-0.168,0.154,0.028,0.497-0.081,0.562l0.537-0.795
							c0.107-0.009-0.018,0.351,0.147,0.253c0.006-0.117,0.081-0.183,0.139-0.272c0.033,0.057,0.45-0.059,0.443,0.384
							c0.026,0.174-0.182,0.069-0.084,0.239c0.194,0.019,0.221-0.13,0.415-0.114l-0.003,0.059c0.12,0.08,0.399-0.142,0.29-0.398
							c-0.088-0.023,0.002,0.266-0.115,0.124c0.121-0.242,0.355-0.287,0.55-0.266c-0.074,0.061-0.081,0.178-0.122,0.298
							c0.302-0.31,0.592-0.383,0.901-0.489c0.03-0.206-0.156,0.363-0.186,0.249c0.337,0.334,0.822-0.31,1.079,0.148
							c-0.055,0.03,0.011-0.297,0.007-0.238c0.177,0.048,0.13,0.347,0.261,0.251c-0.011,0.177,0.155-0.037,0.282-0.075
							c0.079-0.118,0.021,0.091-0.087,0.095c0.187-0.125,0.896-0.306,1.249,0.002c0.008-0.117,0.297-0.395,0.384-0.37l-0.071,0.268
							c0.059,0.173,0.302,0.018,0.285,0.252c0.235-0.305-0.772,0.181-0.48-0.038c0.036,0.235,0.419-0.385,0.312-0.022
							c0.181,0.015,0.396-0.266,0.532,0.013c-0.043-0.052-0.197,0.356-0.051,0.356c0.262-0.013,0.091-0.119,0.311-0.181l0.145-0.094
							c0.046-0.263,0.223,0.068,0.17-0.241c0.001,0.223,0.39-0.082,0.301,0.353l-0.085,0.341c0.113-0.01,0.232-0.338,0.342-0.478
							l0.015,0.162c0.095-0.526,0.257,0.082,0.448-0.307c0.102,0.108,0.248,0.134,0.379,0.177l0.093,0.036l0.042,0.023l0.01,0.007
							l0.003,0.002h0.001v0.001c1.359-1.351-1.853,1.839-1.521,1.511v-0.001h0.001l0.002-0.006l0.009-0.022l0.148-0.149
							c-0.187-0.159-0.396-0.294-0.312-0.514c0.056,0.034,0.078,0.087,0.194,0.083c0.138-0.149-0.006-0.161-0.107-0.267
							c0.082,0.016,0.274-0.298,0.444-0.464c-0.182-0.155-0.459-0.058-0.636-0.052c0.502-0.23-0.402-0.457,0.046-0.722
							c0.08,0.053,0.29,0.226,0.402,0.062c0.501-0.228-0.427-0.276-0.208-0.569l-0.426,0.118c0.254-0.149-0.3-0.354,0.146-0.381
							c-0.166-0.068,0.107-0.325-0.312-0.245c0.305-0.472-0.343-1.02,0.39-1.371c-0.078-0.053-0.023-0.215-0.237-0.158
							c-0.225,0.129,0.185,0.123,0.028,0.18c-0.019-0.054-0.137-0.053-0.195-0.052c0.082-0.145,0.1-0.253,0.467-0.167
							c0.229-0.325-0.755-0.225-0.631-0.621c0.177-0.003,0.239-0.038,0.199-0.146l-0.324-0.178c0.042-0.252,0.385-0.182,0.681-0.22
							c-0.064-0.125-0.067-0.286-0.295-0.321l0.357-0.198c-0.258,0.145-0.19-0.088-0.27-0.142l0.079,0.053
							c0.124-0.036,0.03-0.18-0.015-0.252c-0.182,0.037-0.241,0.199-0.286,0.289c-0.137-0.053-0.117-0.16-0.28-0.233
							c0.294,0,0.186-0.234,0.205-0.341c0.051-0.125-0.274-0.108-0.269-0.144c0.151-0.019,0.006-0.197,0.228-0.126
							c0.053,0.036-0.138,0.107,0.003,0.161c0.104-0.09,0.368-0.106,0.159-0.25c-0.156-0.108-0.572,0.089-0.412-0.162l0.307,0.09
							l0.129-0.232l-0.267,0.017l0.123-0.035c-0.286-0.037-0.12-0.324-0.439-0.344c-0.038-0.107,0.163-0.25,0.185-0.357l0.024,0.018
							c0.145-0.144,0.027-0.305-0.162-0.396h0.059c0.015-0.072-0.043-0.234-0.207-0.309c0.185-0.195,1-0.15,0.647-0.316
							c-0.026-0.179-0.514-0.238-0.678-0.151c0.151-0.339-0.318-0.67,0.07-1.006c-0.11-0.037-0.176-0.002-0.246-0.094
							c0.068-0.484-0.393-0.983,0.102-1.402c0.123,0.13,0.269-0.011,0.419-0.024c-0.247-0.097,0.237-0.155-0.175-0.166
							c-0.24,0.029-0.357,0.026-0.444,0.168c-0.151-0.275-0.185-0.709,0.028-0.882c-0.105,0.087-0.184,0.03-0.261-0.026
							c0.385-0.007,0.43-0.22,0.284-0.37l-0.234-0.007l0.234-0.119c-0.078-0.057-0.495-0.036-0.28-0.208l0.247-0.062
							c-0.201-0.152-0.54-0.365-0.353-0.556l0.333-0.167c-0.042-0.074-0.256-0.19-0.346-0.051c0.188-0.317,0.201-0.515,0.492-0.627
							c-0.759-0.484-0.813-1.254-0.788-1.869l0.177,0.011c0.157-0.171-0.311-0.073-0.193-0.193c0.17,0.047,0.359-0.14,0.569-0.019
							c0.176-0.242-0.316-0.291-0.402-0.441c-0.231-0.016,0.152,0.118-0.142,0.099c-0.083-0.023,0.167-0.333-0.184-0.357
							c0.135-0.064,0.394-0.026,0.536,0.001l-0.176-0.139c0.401-0.188,0.745,0.376,1.24,0.174l-0.06-0.129
							c0.359-0.138,0.426,0.333,0.537-0.001c-0.178-0.136-0.688-0.243-0.838-0.11c-0.107-0.296-0.839-0.112-0.819-0.437
							c0.201-0.094,0.057,0.258,0.343,0.187c0.272-0.16-0.164-0.301-0.069-0.439c-0.129,0.154-0.483,0.037-0.55-0.06
							c0.163-0.17,0.332,0.099,0.365-0.136c-0.202-0.033-0.357-0.246-0.495-0.057c-0.458-0.074,0.123-0.246-0.233-0.367
							c0.321-0.082,0.747,0.226,0.903-0.034c-0.309,0.048-0.426-0.309-0.882-0.164c0.086-0.104,0.33-0.118,0.521-0.048
							c0.189-0.146-0.57-0.341,0.043-0.397l-0.317-0.045c0.103-0.047,0.181-0.112,0.349-0.188c0.004-0.127-0.436-0.405,0.043-0.397
							c-0.05-0.04-0.033-0.33-0.361-0.216c-0.198,0.182,0.244,0.205-0.201,0.31c0.362-0.131-0.052-0.26-0.176-0.364l0.186-0.018
							c-0.074-0.062-0.035-0.206-0.236-0.244c0.106,0.048,0.231,0.022,0.276-0.027l-0.28-0.065
							c-0.138-0.255,0.495-0.061,0.416-0.307l0.216,0.188c-0.046-0.042,0.219-0.125,0.132-0.243
							c-0.256-0.046-0.562-0.134-0.762-0.174c-0.11-0.141,0.29-0.062,0.028-0.2l0.308,0.182c0.084,0.027,0.426-0.119,0.421-0.304
							c-0.088-0.118-0.455-0.308-0.599-0.121c-0.003-0.094,0.155-0.223,0.342-0.146c-0.086-0.212-0.276,0.024-0.434-0.16
							c0.172-0.072,0.419-0.302,0.669-0.436l0.428,0.196l0.006-0.125c0.342,0.168,0.263-0.077,0.625,0.021
							c0.057-0.083-0.064-0.188-0.158-0.273c-0.585,0.238-0.791-0.298-1.321-0.238c-0.14-0.353,1.288-0.181,0.47-0.564
							c-0.141,0.055-0.536-0.129-0.392,0.095c0.066-0.214-0.525-0.165-0.294-0.415c0.209,0.198,0.547-0.183,0.85,0.102
							c-0.174-0.024-0.141,0.147-0.095,0.19c0.209-0.082,0.533,0.035,0.545-0.183c-0.044-0.136-0.045-0.319-0.323-0.304
							c-0.303-0.007,0.022,0.206-0.279,0.108c-0.092-0.273,0.371-0.298-0.161-0.433c0.034,0.172-0.28,0.201-0.488,0.188
							l-0.116-0.204l0.199,0.047c0.161-0.312-0.36-0.111-0.291-0.419l0.405-0.125c0.339,0.092-0.175,0.442,0.387,0.414
							c0.032-0.198-0.248-0.279-0.095-0.46l0.104,0.146c0.022-0.071,0.766-0.101,0.347-0.407c-0.16-0.156-0.195-0.051-0.404-0.067
							c-0.047-0.324-0.255-0.435-0.276-0.645c0.403,0.071,0.061-0.363,0.463-0.104c-0.244,0.087-0.245,0.555,0.138,0.691
							c0.489-0.087-0.081,0.246,0.405,0.342c0.024-0.253,0.499-0.212,0.812-0.233c0.026-0.067-0.103-0.144-0.148-0.188
							c-0.291-0.048-0.292,0.044-0.594,0.03c0.095-0.278-0.059-0.561-0.33-0.74c0.155-0.085,0.444-0.032,0.462,0.082
							c-0.054-0.344,0.022-0.703,0.144-1.015c-0.498,0.161-0.075-0.369-0.486-0.269c-0.125,0.162-0.479,0.279-0.683,0.162
							c0.041-0.107,0.208,0.024,0.314-0.012c-0.246-0.167,0.438-0.173,0.043-0.353c0.121,0.33,0.574,0.122,0.94,0.219
							c-0.187-0.243,0.265,0.038,0.287-0.18c-0.185-0.242-0.32-0.534-0.375-0.791c0.383-0.262,0.133-0.782,0.162-1.064
							c0.212-0.113,0.613,0.055,0.712-0.087c0.023-0.183-0.473,0.057-0.236-0.18l0.078,0.041c-0.081-0.101,0.367-0.437-0.217-0.636
							l0.437,0.173c0.05-0.041-0.046-0.108-0.087-0.159c0.147,0.027,0.291-0.003,0.373,0.097c0.341-0.099,0.001-0.354,0.044-0.531
							l-0.296,0.055c-0.125-0.354,0.193-0.496,0.182-0.813l0.254,0.079l-0.105-0.217c0.237,0.113,0.438,0.003,0.257-0.149
							l0.507,0.617c-0.185,0.08-0.274-0.216-0.548-0.209c-0.24,0.005-0.243,0.297-0.006,0.399c0.056-0.095,0-0.113-0.071-0.217
							c0.368,0.061,0.312,0.21,0.532,0.343c-0.001-0.056,0.128-0.101,0.018-0.141c0.147,0.146,0.147,0.252,0.11,0.421
							c-0.11-0.146-0.24,0.011-0.332-0.056c0.313,0.087,0.363,0.264,0.244,0.461c-0.396,0.079,0.17,0.45,0.025,0.675
							c-0.308-0.158-0.546-0.338-0.65-0.518c-0.189,0.128-0.021,0.179-0.212,0.309c0.229,0.122,0.591,0.243,0.704,0.471
							l-0.242-0.029c0.092,0.207,0.448,0.263,0.34,0.484c-0.198,0.378-0.236,0.802-0.296,1.11l-0.242-0.017
							c0.499,0.233,0.132,0.601,0.338,0.856c-0.271,0.378,0.137,0.876-0.283,1.052c0.151,0.723,0.303,1.345,0.176,2.071
							l-0.348-0.136c0.254,0.141-0.208,0.078-0.162,0.21c0.29-0.14,0.356,0.19,0.576,0.287c-0.279,0.319,0.016,0.749,0.26,1.04
							l-0.244,0.008c0.453,0.299,0.048,0.641-0.032,1.006c-0.102,0.042-0.331,0.107-0.306,0.217c0.39,0.197,0.366,0.302,0.616,0.591
							c0.004,0.211-0.088,0.556-0.237,0.774c0.565,0.788,0.22,1.607,0.594,2.427l-0.283,0.07c0.645,0.779,0.123,1.79,0.485,2.461
							l-0.492-0.039c-0.137,0.225,0.157,0.484,0.5,0.409c-0.137,0.225,0.269,0.523-0.124,0.686
							c-0.077,0.226,0.242,0.255,0.318,0.434c-0.16,0.453-0.102,0.615,0.021,1.024l0.022-0.105
							c-0.111-0.038-0.318-0.027-0.342,0.078c0.148,0.146-0.087,0.582,0.482,0.384c-0.301,0.47,0.353,1.013-0.067,1.481
							c0.156-0.05,0.194,0.057,0.307,0.093c0.042,0.388-0.246,0.826,0.053,1.112c-0.073,0.069-0.279-0.074-0.281,0.086
							c0.07,0.088,0.208-0.017,0.307,0.091c0.352,0.603-0.19,1.306-0.052,1.872c0.407,0.988,0.37,2.064,0.532,3.034l-0.117,0.002
							c0.48,0.274-0.363,0.82,0.337,1c-0.102,0.091-0.017,0.301-0.248,0.271c0.345,0.221-0.207,0.765,0.242,1.088l-0.075-0.086
							c-0.208,0.412,0.186,0.701,0.008,1.128c-0.055-0.033-0.102-0.102-0.219-0.098c-0.202,0.185,0.539,0.296-0.009,0.458
							c0.017,0.088,0.29,0.023,0.267-0.028l-0.012,0.166l-0.002,0.082l0.001,0.041v0.011v0.001c-3.856,3.83-1.069,1.062-1.93,1.916
							h-0.001h-0.002l-0.006-0.002l-0.02-0.005l-0.329-0.062l-0.689-0.026l-1.411,0.069c-0.607-0.424,0.09-0.949-0.483-0.601
							c-0.028-0.113-0.061,0.21-0.052,0.093c-0.221,0.13-0.228-0.666-0.405-0.393c0.012,0.352-0.118,0.181-0.15,0.39
							c-0.37-0.276-0.411-0.598-0.761-0.379l0.047-0.178c-0.438,0.464-0.832,0.136-1.22,0.687c-2.057-0.153-4.052-0.043-6.048-0.183
							c-1.956-0.312-3.9-0.213-5.87-0.673c-0.434-0.507-0.471-0.496-0.996-0.332c0.025-0.076,0.059-0.093,0.029-0.168
							c-0.05,0.392-0.364,0.016-0.436,0.388c-0.731-0.118-1.416-0.054-2.167-0.071c0.12-0.038,0.193-0.356,0.05-0.336l-0.157,0.247
							l-0.021-0.112c-0.1,0.055-0.212,0.246-0.116,0.376c-1.89,0.267-3.735-0.551-5.531-0.353c-0.444-0.157-1.035,0.035-1.458,0.178
							c-1.322-0.43-2.778-0.524-3.377,0.181C94.143,126.075,93.688,125.193,94.116,124.741z"/>
						<path fill="#794DA6" d="M126.122,93.762c-0.2-0.012-0.348,0.118-0.562-0.087C125.74,93.713,125.959,93.693,126.122,93.762z"/>
						<path fill="#794DA6" d="M123.301,97.834c0.058,0.013-0.086,0.058-0.119,0.069c-0.01-0.059-0.168-0.131-0.062-0.165
							C123.127,97.798,123.222,97.799,123.301,97.834z"/>
						<path fill="#794DA6" d="M123.063,99.01c-0.172-0.031-0.285-0.299-0.291-0.452L123.063,99.01z"/>
						<path fill="#794DA6" d="M122.271,100.068c-0.152,0.087-0.232,0.056-0.221-0.073L122.271,100.068z"/>
						<path fill="#794DA6" d="M122.665,100.171c0,0.092-0.105,0.132-0.209,0.171C122.607,100.348,122.374,100.123,122.665,100.171z"
							/>
						<path fill="#794DA6" d="M122.059,102.556c0.014,0.059,0.157,0.187-0.038,0.236
							C122.157,102.734,121.803,102.506,122.059,102.556z"/>
						<path fill="#794DA6" d="M122.309,103.674c-0.012,0.036-0.044,0.05,0.004,0.092c-0.081,0.065-0.207-0.005-0.223-0.061
							L122.309,103.674z"/>
						<polygon fill="#794DA6" points="124.367,123.534 124.267,123.428 124.441,123.424 						"/>
						<path fill="#794DA6" d="M119.867,123.519c-0.13,0.095-0.061-0.174-0.077-0.201
							C119.897,123.312,119.725,123.526,119.867,123.519z"/>
						<polygon fill="#794DA6" points="115.119,123.858 115.155,123.857 115.105,124.214 						"/>
					</g>
				</g>
			</g>
			<g>
				<path fill="#663399" d="M94.146,16.502c8.887,4.232,32.075-0.166,32.075-0.166s-3.096,24.106-0.072,32.308"/>
				<g>
					<path fill="none" d="M94.146,16.502c8.887,4.232,32.075-0.166,32.075-0.166s-3.096,24.106-0.072,32.308"/>
					<g>
						<path fill="#794DA6" d="M94.563,15.969c-0.246-0.008-0.014,0.322-0.197,0.07C94.457,15.922,94.542,15.841,94.563,15.969z"/>
						<path fill="#794DA6" d="M126.358,47.752c-1.13-0.472-0.406-1.691-1.12-2.401c-0.056-0.091,0.5-0.054,0.342-0.252
							c-0.813-0.699-0.552-2.059-0.064-3.07l0.146,0.049c0.091-0.193-0.391-0.389-0.337-0.593c0.093-0.007,0.137,0.055,0.264,0.001
							c-0.287-0.032-0.153-0.35-0.369-0.422c0.105-0.084,0.33-0.089,0.45-0.197l-0.33-0.096c-0.788-0.28,0.005-0.771-0.395-1.189
							c0.075,0.019,0.135,0.06,0.207,0.023c-0.479-0.681-0.421-1.56-0.597-2.34c0.114,0.031,0.321,0.058,0.45,0.012
							c-0.34-0.037-0.424-0.278-0.489-0.488c0.35-0.094-0.316-0.36-0.121-0.606l0.076,0.021c-0.365-0.185,0.212-0.268-0.225-0.419
							l0.274-0.113c-0.491-0.085,0.257-0.26,0.008-0.413l-0.102,0.003c-0.118-0.144,0.13-0.213,0.047-0.347l0.057-0.011
							c-0.123-0.31,0.158-0.483-0.228-0.484c0.312-0.101,0.132,0.301,0.586,0.141c-0.362-1.018-0.27-2.062-0.226-3.078
							c0.16-0.109,0.21-0.18,0.357-0.2c-0.073-0.104-0.053-0.385-0.245-0.486c0.007,0.035,0.2-0.056,0.221-0.109
							c0.154-0.177-0.411-0.223-0.229-0.417c0.098,0.086,0.221,0.12,0.365,0.1c-0.292-0.188-0.232-0.417-0.32-0.627
							c0.063,0.035,0.1,0.086,0.221,0.085c-0.328-0.242,0.089-0.404-0.111-0.612l0.217,0.086c0.289-0.3-0.458-0.12-0.281-0.383
							c0.066,0.07,0.154,0.052,0.243,0.069c-0.386-0.278-0.227-0.683-0.348-0.945l0.091,0.017c-0.033-0.28,0.11-0.561-0.045-0.877
							c0.104-0.104,0.537,0.073,0.474-0.225c-0.446-0.02-0.146-0.509-0.661-0.373c0.092-0.245,0.289-0.629,0.15-0.807
							c0.16,0.125,0.552-0.081,0.573,0.13l0.282-0.137c0.179,0.037-0.074,0.157,0.158,0.124c-0.011-0.105-0.163-0.421-0.083-0.508
							c-0.258-0.213-0.752-0.431-0.784-0.748c0.161,0.161,0.495-0.044,0.563,0.062l-0.814-0.505
							c-0.012-0.105,0.352,0.007,0.249-0.153c-0.117-0.002-0.186-0.074-0.277-0.127c0.057-0.035-0.071-0.442,0.37-0.449
							c0.174-0.032,0.075,0.177,0.242,0.075c0.013-0.192-0.137-0.213-0.127-0.406l0.059,0.001c0.076-0.12-0.153-0.389-0.406-0.273
							c-0.021,0.087,0.265-0.01,0.126,0.109c-0.245-0.112-0.297-0.342-0.283-0.534l0.302,0.112c-0.321-0.289-0.405-0.573-0.52-0.875
							c-0.207-0.024,0.367,0.143,0.254,0.175c0.324-0.342-0.334-0.803,0.117-1.069c0.031,0.054-0.298-0.002-0.239,0
							c0.043-0.176,0.343-0.137,0.243-0.265c0.178,0.006-0.043-0.151-0.085-0.276c-0.121-0.075,0.09-0.022,0.098,0.083
							c-0.134-0.181-0.332-0.876-0.036-1.233c-0.117-0.005-0.402-0.282-0.38-0.37l0.269,0.064c0.172-0.063,0.008-0.299,0.242-0.289
							c-0.311-0.225,0.206,0.758-0.022,0.475c0.234-0.042-0.397-0.403-0.031-0.308c0.008-0.178-0.278-0.385-0.004-0.526
							c-0.05,0.044,0.362,0.186,0.358,0.041c-0.021-0.257-0.122-0.086-0.19-0.301l-0.097-0.141
							c-0.265-0.039,0.062-0.222-0.246-0.162c0.223-0.006-0.094-0.383,0.344-0.306l0.343,0.076
							c-0.014-0.112-0.345-0.221-0.487-0.325l0.162-0.019c-0.528-0.081,0.075-0.256-0.318-0.436
							c0.104-0.103,0.128-0.251,0.167-0.381l0.004-0.012l0.002-0.006l0.001-0.003v-0.001l0.001,0
							c-1.448-1.364,1.972,1.857,1.619,1.525l0,0l0,0l-0.025,0l-0.05-0.003l-0.094-0.022l-0.153-0.143
							c-0.146,0.19-0.274,0.407-0.495,0.33c0.031-0.057,0.083-0.082,0.075-0.197c-0.153-0.132-0.16,0.012-0.261,0.117
							c0.013-0.082-0.304-0.266-0.475-0.429c-0.146,0.186-0.039,0.46-0.027,0.637c-0.246-0.494-0.438,0.417-0.715-0.021
							c0.049-0.082,0.212-0.298,0.046-0.405c-0.242-0.492-0.259,0.434-0.555,0.226l0.131,0.422c-0.156-0.25-0.339,0.31-0.382-0.134
							c-0.062,0.168-0.325-0.097-0.231,0.32c-0.477-0.289-0.998,0.371-1.368-0.35c-0.05,0.079-0.211,0.029-0.149,0.241
							c0.135,0.221,0.116-0.188,0.177-0.033c-0.052,0.021-0.047,0.138-0.045,0.197c-0.146-0.078-0.253-0.093-0.179-0.462
							c-0.329-0.22-0.199,0.761-0.596,0.648c-0.008-0.176-0.045-0.239-0.149-0.195l-0.166,0.329
							c-0.251-0.038-0.191-0.38-0.237-0.676c-0.121,0.068-0.28,0.074-0.31,0.302l-0.205-0.352c0.149,0.253-0.082,0.192-0.133,0.272
							l0.051-0.08c-0.04-0.124-0.179-0.027-0.249,0.02c0.042,0.182,0.203,0.236,0.293,0.279c-0.049,0.138-0.155,0.122-0.223,0.286
							c-0.009-0.294-0.236-0.18-0.343-0.197c-0.125-0.048-0.1,0.277-0.135,0.272c-0.022-0.151-0.195-0.001-0.131-0.225
							c0.034-0.054,0.11,0.135,0.16-0.007c-0.092-0.102-0.116-0.366-0.252-0.153c-0.104,0.16,0.103,0.57-0.15,0.416l0.082-0.308
							l-0.233-0.124l0.023,0.266l-0.038-0.123c-0.029,0.288-0.317,0.127-0.329,0.446c-0.105,0.041-0.251-0.158-0.358-0.177
							l0.017-0.025c-0.145-0.142-0.302-0.02-0.388,0.171l-0.001-0.059c-0.072-0.013-0.23,0.047-0.301,0.213
							c-0.197-0.181-0.17-0.996-0.326-0.64c-0.177,0.029-0.226,0.518-0.136,0.68c-0.339-0.146-0.656,0.335-0.996-0.053
							c-0.036,0.111,0,0.176-0.089,0.249c-0.48-0.062-0.967,0.408-1.39-0.08c0.126-0.125-0.015-0.268-0.031-0.418
							c-0.091,0.249-0.157-0.235-0.161,0.177c0.032,0.239,0.031,0.357,0.173,0.442c-0.27,0.155-0.698,0.197-0.873-0.016
							c0.087,0.105,0.032,0.183-0.023,0.26c-0.011-0.386-0.224-0.428-0.37-0.281l-0.004,0.235l-0.121-0.233
							c-0.055,0.079-0.029,0.496-0.203,0.282l-0.064-0.247c-0.148,0.203-0.355,0.544-0.547,0.358l-0.168-0.331
							c-0.073,0.043-0.187,0.257-0.047,0.346c-0.316-0.184-0.512-0.196-0.626-0.485c-0.472,0.766-1.238,0.813-1.849,0.793
							l0.011-0.176c-0.171-0.157-0.072,0.31-0.191,0.193c0.046-0.169-0.14-0.358-0.02-0.569c-0.24-0.175-0.288,0.318-0.438,0.404
							c-0.016,0.231,0.117-0.153,0.098,0.141c-0.023,0.083-0.33-0.167-0.354,0.184c-0.063-0.134-0.025-0.393,0.001-0.536
							l-0.137,0.176c-0.187-0.4,0.372-0.746,0.173-1.24l-0.128,0.06c-0.136-0.359,0.328-0.426,0-0.537
							c-0.135,0.178-0.241,0.689-0.11,0.838c-0.293,0.108-0.111,0.841-0.435,0.815c-0.093-0.204,0.256-0.052,0.187-0.338
							c-0.158-0.279-0.299,0.161-0.437,0.063c0.152,0.13,0.034,0.484-0.062,0.549c-0.168-0.164,0.1-0.332-0.134-0.365
							c-0.033,0.202-0.245,0.355-0.058,0.494c-0.076,0.458-0.245-0.124-0.366,0.231c-0.08-0.322,0.229-0.746-0.029-0.903
							c0.046,0.309-0.309,0.424-0.169,0.881c-0.102-0.087-0.114-0.331-0.043-0.521c-0.145-0.189-0.344,0.568-0.395-0.045
							l-0.047,0.317c-0.046-0.103-0.11-0.181-0.184-0.35c-0.125-0.004-0.406,0.433-0.395-0.045c-0.04,0.049-0.327,0.031-0.218,0.359
							c0.179,0.2,0.206-0.242,0.306,0.203c-0.126-0.363-0.259,0.051-0.364,0.174l-0.016-0.185c-0.062,0.075-0.206,0.029-0.247,0.229
							c0.049-0.104,0.025-0.231-0.023-0.277l-0.069,0.279c-0.256,0.133-0.053-0.496-0.3-0.421l0.189-0.212
							c-0.042,0.046-0.12-0.22-0.239-0.136c-0.05,0.255-0.142,0.561-0.186,0.759c-0.142,0.108-0.056-0.291-0.199-0.032l0.187-0.304
							c0.028-0.083-0.111-0.428-0.295-0.426c-0.119,0.086-0.314,0.45-0.132,0.597c-0.093,0.002-0.219-0.159-0.139-0.344
							c-0.214,0.083,0.02,0.277-0.168,0.431c-0.069-0.173-0.292-0.424-0.421-0.676l0.205-0.424l-0.124-0.009
							c0.174-0.338-0.071-0.263,0.034-0.624c-0.082-0.059-0.189,0.061-0.274,0.153c0.223,0.588-0.313,0.786-0.268,1.317
							c-0.354,0.132-0.146-1.287-0.552-0.488c0.051,0.143-0.144,0.531,0.085,0.396c-0.213-0.075-0.179,0.519-0.423,0.28
							c0.203-0.202-0.167-0.552,0.125-0.846c-0.029,0.173,0.143,0.144,0.187,0.1c-0.075-0.21,0.05-0.532-0.166-0.549
							c-0.136,0.04-0.318,0.035-0.312,0.313c-0.016,0.303,0.206-0.017,0.1,0.283c-0.275,0.084-0.284-0.38-0.437,0.148
							c0.173-0.03,0.192,0.286,0.174,0.494l-0.208,0.11l0.054-0.198c-0.307-0.17-0.123,0.357-0.429,0.278l-0.111-0.409
							c0.103-0.336,0.436,0.188,0.426-0.374c-0.196-0.038-0.287,0.239-0.462,0.08l0.149-0.099c-0.07-0.025-0.072-0.768-0.393-0.359
							c-0.162,0.156-0.059,0.194-0.082,0.403c-0.325,0.037-0.444,0.241-0.654,0.256c0.089-0.395-0.364-0.093-0.087-0.472
							c0.078,0.259,0.545,0.265,0.695-0.11c-0.067-0.491,0.243,0.088,0.355-0.394c-0.251-0.032-0.192-0.505-0.201-0.818
							c-0.066-0.028-0.146,0.099-0.192,0.143c-0.06,0.289,0.031,0.293,0.007,0.594c-0.272-0.102-0.559,0.04-0.75,0.295
							c-0.078-0.158-0.012-0.445,0.102-0.458c-0.344,0.038-0.697-0.055-1-0.19c0.134,0.505-0.372,0.058-0.293,0.473
							c0.154,0.132,0.255,0.492,0.126,0.69c-0.105-0.047,0.035-0.207,0.005-0.314c-0.18,0.237-0.149-0.447-0.351-0.06
							c0.336-0.106,0.152-0.567,0.27-0.929c-0.253,0.175,0.052-0.262-0.164-0.294c-0.25,0.173-0.547,0.294-0.806,0.337
							c-0.236-0.417-0.769-0.19-1.049-0.243c-0.098-0.219,0.101-0.607-0.032-0.716c-0.179-0.035,0.02,0.475-0.196,0.224l0.047-0.076
							c-0.107,0.074-0.402-0.395-0.648,0.172l0.207-0.421c-0.037-0.053-0.111,0.038-0.165,0.075
							c0.039-0.145,0.021-0.289,0.128-0.364c-0.071-0.337-0.347-0.034-0.518-0.093l0.025,0.3c-0.36,0.091-0.471-0.239-0.785-0.257
							l0.104-0.245l-0.225,0.085c0.136-0.226,0.049-0.436-0.12-0.27l0.658-0.446c0.06,0.191-0.239,0.252-0.261,0.525
							c-0.02,0.238,0.269,0.269,0.392,0.043c-0.087-0.065-0.11-0.011-0.22,0.05c0.096-0.36,0.237-0.291,0.389-0.498
							c-0.055-0.004-0.086-0.137-0.136-0.031c0.157-0.133,0.261-0.124,0.421-0.072c-0.152,0.097-0.013,0.241-0.086,0.325
							c0.119-0.312,0.285-0.326,0.47-0.198c0.044,0.398,0.455-0.139,0.663,0.019c-0.181,0.296-0.376,0.521-0.562,0.613
							c0.111,0.197,0.175,0.033,0.287,0.231c0.139-0.22,0.287-0.572,0.518-0.67l-0.047,0.239c0.21-0.078,0.291-0.43,0.499-0.308
							c0.354,0.222,0.76,0.301,1.062,0.364l-0.029,0.241c0.257-0.488,0.596-0.105,0.858-0.3c0.355,0.288,0.861-0.099,1.014,0.336
							c0.716-0.13,1.33-0.264,2.037-0.117l-0.143,0.343c0.146-0.249,0.071,0.21,0.201,0.168c-0.128-0.294,0.197-0.352,0.297-0.561
							c0.307,0.284,0.735-0.004,1.025-0.243l0.003,0.244c0.302-0.448,0.629-0.038,0.986,0.048c0.039,0.102,0.101,0.333,0.208,0.309
							c0.2-0.389,0.3-0.353,0.587-0.604c0.207-0.002,0.545,0.091,0.758,0.242c0.778-0.566,1.579-0.203,2.384-0.583l0.069,0.283
							c0.763-0.651,1.756-0.12,2.413-0.493l-0.034,0.492c0.222,0.135,0.475-0.162,0.397-0.504c0.222,0.135,0.511-0.273,0.674,0.118
							c0.224,0.075,0.248-0.245,0.423-0.323c0.447,0.156,0.604,0.1,1.005-0.03l-0.104-0.021c-0.036,0.111-0.022,0.319,0.082,0.341
							c0.141-0.151,0.573,0.078,0.369-0.489c0.467,0.294,0.987-0.368,1.456,0.045c-0.052-0.155,0.052-0.195,0.085-0.307
							c0.381-0.047,0.817,0.229,1.092-0.074c0.069,0.073-0.066,0.281,0.091,0.28c0.085-0.072-0.021-0.208,0.082-0.309
							c0.583-0.365,1.287,0.167,1.84,0.014c0.961-0.429,2.02-0.417,2.967-0.609l0.006,0.117c0.254-0.486,0.818,0.34,0.971-0.365
							c0.093,0.098,0.296,0.007,0.275,0.24c0.203-0.352,0.759,0.184,1.06-0.275l-0.082,0.078c0.412,0.193,0.682-0.207,1.107-0.045
							c-0.03,0.057-0.096,0.105-0.087,0.223c0.189,0.195,0.269-0.55,0.45-0.008c0.085-0.02,0.011-0.29-0.039-0.265l0.325-0.001
							l0.08-0.007l0.01-0.001h0.003l0.001,0c0.883,0.832-1.976-1.862,1.979,1.865v0l-0.001,0.005l-0.003,0.02l-0.007,0.04
							l-0.021,0.162l-0.008,0.678l0.11,1.387c-0.404,0.609-0.95-0.063-0.585,0.493c-0.113,0.03,0.211,0.053,0.094,0.047
							c0.137,0.214-0.659,0.242-0.38,0.41c0.351-0.021,0.184,0.111,0.393,0.137c-0.266,0.373-0.586,0.421-0.354,0.76l-0.18-0.042
							c0.478,0.418,0.161,0.816,0.724,1.182c-0.082,2.029,0.087,3.99,0.028,5.957c-0.238,1.935-0.078,3.846-0.442,5.798
							c-0.492,0.447-0.48,0.484-0.301,0.995c-0.077-0.022-0.095-0.054-0.168-0.022c0.393,0.033,0.025,0.358,0.402,0.413
							c-0.077,0.723,0.027,1.391,0.024,2.135c-0.042-0.118-0.362-0.176-0.337-0.036l0.251,0.146l-0.112,0.024
							c0.059,0.096,0.252,0.199,0.379,0.099c0.358,1.847-0.371,3.692-0.112,5.472c-0.116,0.433,0.099,1.015,0.228,1.457
							c-0.346,1.376-0.498,2.695,0.235,3.788C127.745,48.056,126.747,48.25,126.358,47.752z"/>
						<path fill="#794DA6" d="M94.834,16.029c-0.034,0.197,0.077,0.355-0.147,0.549L94.834,16.029z"/>
						<path fill="#794DA6" d="M98.622,19.144c0.016-0.057,0.053,0.088,0.062,0.122c-0.06,0.007-0.14,0.162-0.169,0.054
							C98.576,19.314,98.583,19.22,98.622,19.144z"/>
						<path fill="#794DA6" d="M99.782,19.435c-0.039,0.171-0.312,0.271-0.466,0.27L99.782,19.435z"/>
						<path fill="#794DA6" d="M100.808,20.274c0.081,0.155,0.047,0.233-0.082,0.218L100.808,20.274z"/>
						<path fill="#794DA6" d="M100.924,19.884c0.092,0.003,0.128,0.109,0.163,0.213C101.098,19.946,100.866,20.173,100.924,19.884z"
							/>
						<path fill="#794DA6" d="M103.287,20.56c0.059-0.013,0.188-0.154,0.234,0.042C103.467,20.464,103.231,20.815,103.287,20.56z"/>
						<path fill="#794DA6" d="M104.406,20.328c0.035,0.013,0.049,0.045,0.092-0.002c0.063,0.082-0.009,0.208-0.065,0.222
							L104.406,20.328z"/>
						<polygon fill="#794DA6" points="124.05,18.044 123.948,18.147 123.938,17.974 						"/>
						<path fill="#794DA6" d="M124.271,22.299c0.1,0.125-0.171,0.065-0.198,0.083C124.064,22.275,124.285,22.44,124.271,22.299z"/>
						<polygon fill="#794DA6" points="124.771,26.974 124.769,26.938 125.127,26.976 						"/>
					</g>
				</g>
			</g>
			<g>
				<path fill="#663399" d="M17.522,47.938c2.123-7.487-0.633-31.842-0.633-31.842s24.573,4.269,32.074,0.307"/>
				<g>
					<path fill="none" d="M17.522,47.938c2.123-7.487-0.633-31.842-0.633-31.842s24.573,4.269,32.074,0.307"/>
					<g>
						<path fill="#794DA6" d="M16.93,47.617c0.03,0.243,0.321-0.039,0.1,0.181C16.9,47.729,16.806,47.658,16.93,47.617z"/>
						<path fill="#794DA6" d="M48.061,16.285c-0.345,1.187-1.623,0.529-2.276,1.284c-0.088,0.061-0.079-0.497-0.265-0.327
							c-0.659,0.82-2.024,0.636-3.031,0.139l0.046-0.146c-0.191-0.088-0.378,0.396-0.58,0.345c-0.008-0.093,0.052-0.138-0.002-0.264
							c-0.028,0.288-0.344,0.158-0.413,0.375c-0.084-0.104-0.092-0.329-0.199-0.447l-0.092,0.331
							c-0.271,0.797-0.763-0.006-1.175,0.396c0.019-0.076,0.059-0.135,0.022-0.207c-0.674,0.475-1.547,0.432-2.322,0.589
							c0.031-0.113,0.06-0.32,0.015-0.45c-0.039,0.339-0.279,0.421-0.488,0.485c-0.09-0.351-0.36,0.313-0.603,0.116l0.022-0.076
							c-0.188,0.363-0.264-0.215-0.419,0.221l-0.109-0.276c-0.091,0.491-0.255-0.259-0.41-0.011l0.002,0.101
							c-0.145,0.117-0.21-0.129-0.343-0.052l-0.011-0.057c-0.309,0.114-0.477-0.167-0.483,0.217
							c-0.096-0.312,0.301-0.127,0.148-0.583c-1.014,0.343-2.05,0.244-3.056,0.17c-0.104-0.162-0.174-0.214-0.19-0.362
							c-0.105,0.071-0.383,0.045-0.488,0.235c0.035-0.006-0.051-0.201-0.103-0.223c-0.172-0.158-0.23,0.407-0.419,0.221
							c0.088-0.096,0.124-0.218,0.108-0.362c-0.193,0.287-0.419,0.223-0.629,0.306c0.037-0.062,0.088-0.097,0.09-0.218
							c-0.249,0.325-0.398-0.101-0.609,0.095l0.091-0.214c-0.29-0.297-0.131,0.454-0.387,0.271c0.071-0.064,0.055-0.153,0.074-0.242
							c-0.286,0.379-0.682,0.209-0.946,0.323l0.019-0.09c-0.278,0.026-0.553-0.125-0.871,0.023c-0.1-0.108,0.088-0.536-0.209-0.48
							c-0.034,0.446-0.509,0.13-0.389,0.65c-0.241-0.099-0.615-0.307-0.795-0.175c0.129-0.156-0.063-0.553,0.146-0.569l-0.126-0.286
							c0.042-0.178,0.152,0.079,0.127-0.155c-0.104,0.008-0.422,0.15-0.506,0.068c-0.219,0.251-0.451,0.739-0.767,0.762
							c0.165-0.157-0.027-0.497,0.08-0.562l-0.528,0.798c-0.105,0.009,0.019-0.351-0.144-0.253c-0.006,0.117-0.08,0.183-0.136,0.273
							c-0.033-0.057-0.441,0.057-0.433-0.384c-0.025-0.174,0.178-0.069,0.083-0.239c-0.189-0.02-0.216,0.129-0.407,0.113
							l0.003-0.059c-0.117-0.08-0.392,0.14-0.285,0.397c0.085,0.023-0.001-0.266,0.113-0.123c-0.119,0.242-0.349,0.286-0.54,0.266
							c0.074-0.061,0.081-0.178,0.122-0.298c-0.298,0.312-0.583,0.387-0.887,0.49c-0.032,0.206,0.155-0.362,0.183-0.248
							c-0.327-0.336-0.809,0.306-1.057-0.155c0.055-0.029-0.013,0.297-0.009,0.239c-0.173-0.049-0.124-0.348-0.253-0.253
							c0.013-0.177-0.152,0.038-0.277,0.075c-0.079,0.118-0.019-0.09,0.086-0.095c-0.185,0.128-0.882,0.301-1.225-0.009
							c-0.009,0.117-0.296,0.392-0.381,0.366l0.074-0.266c-0.056-0.174-0.296-0.019-0.276-0.253c-0.235,0.302,0.76-0.176,0.47,0.041
							c-0.032-0.235-0.416,0.381-0.307,0.02c-0.177-0.015-0.393,0.265-0.522-0.015c0.042,0.051,0.199-0.355,0.055-0.357
							c-0.256,0.01-0.09,0.119-0.307,0.178l-0.144,0.091c-0.049,0.263-0.218-0.07-0.17,0.239c0.003-0.222-0.384,0.079-0.29-0.355
							l0.089-0.34c-0.111,0.009-0.233,0.337-0.343,0.475l-0.012-0.163c-0.102,0.525-0.25-0.085-0.445,0.301
							c-0.1-0.11-0.241-0.137-0.369-0.182l-0.169-0.091l-0.033-0.035l-0.001-0.001l0,0l0,0c0.669-0.63-1.497,1.41,1.499-1.413l0,0
							l-0.002,0.002l-0.003,0.005l-0.008,0.009l-0.018,0.018l-0.096,0.063c0.181,0.159,0.387,0.298,0.295,0.509
							c-0.054-0.035-0.075-0.087-0.19-0.086c-0.143,0.142,0,0.157,0.099,0.263c-0.082-0.017-0.284,0.283-0.458,0.441
							c0.176,0.157,0.457,0.067,0.634,0.067c-0.508,0.212,0.388,0.455-0.067,0.702c-0.079-0.053-0.284-0.227-0.4-0.069
							c-0.508,0.211,0.419,0.28,0.193,0.561l0.429-0.106c-0.258,0.141,0.29,0.352-0.156,0.369c0.165,0.07-0.115,0.315,0.307,0.246
							c-0.319,0.454,0.316,1.001-0.423,1.33c0.077,0.053,0.018,0.21,0.233,0.159c0.228-0.122-0.182-0.124-0.024-0.176
							c0.018,0.053,0.135,0.054,0.194,0.054c-0.085,0.139-0.106,0.245-0.471,0.154c-0.236,0.314,0.75,0.233,0.616,0.619
							c-0.176-0.001-0.24,0.033-0.203,0.139l0.32,0.178c-0.048,0.245-0.388,0.171-0.686,0.203c0.063,0.123,0.063,0.28,0.29,0.319
							l-0.361,0.188c0.26-0.137,0.188,0.089,0.266,0.143l-0.078-0.054c-0.125,0.034-0.035,0.175,0.009,0.247
							c0.183-0.034,0.245-0.191,0.292-0.278c0.136,0.054,0.114,0.158,0.275,0.232c-0.294-0.004-0.19,0.226-0.212,0.33
							c-0.053,0.122,0.272,0.11,0.266,0.145c-0.151,0.016-0.01,0.192-0.23,0.119c-0.052-0.036,0.14-0.103,0-0.158
							c-0.106,0.086-0.371,0.099-0.165,0.243c0.155,0.108,0.574-0.079,0.409,0.164l-0.304-0.093l-0.134,0.226l0.267-0.012
							l-0.125,0.032c0.286,0.041,0.114,0.318,0.433,0.341c0.037,0.105-0.166,0.242-0.188,0.347l-0.025-0.018
							c-0.146,0.138-0.031,0.297,0.156,0.389l-0.059-0.001c-0.016,0.07,0.039,0.229,0.202,0.304
							c-0.188,0.188-1.002,0.135-0.652,0.301c0.022,0.175,0.509,0.238,0.674,0.155c-0.156,0.33,0.306,0.658-0.086,0.981
							c0.111,0.038,0.176,0.004,0.247,0.094c-0.07,0.472,0.381,0.961-0.117,1.367c-0.121-0.127-0.268,0.009-0.419,0.021
							c0.246,0.096-0.239,0.15,0.173,0.163c0.24-0.027,0.358-0.023,0.446-0.161c0.148,0.269,0.176,0.692-0.039,0.86
							c0.106-0.084,0.184-0.029,0.26,0.027c-0.386,0.004-0.43,0.212-0.284,0.359l0.235,0.007l-0.234,0.116
							c0.079,0.055,0.496,0.036,0.279,0.204l-0.248,0.06c0.201,0.149,0.538,0.357,0.349,0.543l-0.333,0.162
							c0.042,0.072,0.254,0.187,0.345,0.05c-0.19,0.309-0.205,0.502-0.496,0.612c0.749,0.474,0.82,1.219,0.789,1.819l-0.176-0.01
							c-0.157,0.168,0.31,0.07,0.193,0.188c-0.169-0.045-0.359,0.138-0.569,0.021c-0.176,0.237,0.316,0.282,0.402,0.429
							c0.231,0.014-0.152-0.114,0.141-0.097c0.083,0.022-0.167,0.325,0.183,0.347c-0.135,0.063-0.393,0.028-0.536,0.002l0.176,0.134
							c-0.401,0.186-0.744-0.362-1.239-0.163l0.059,0.126c-0.359,0.137-0.425-0.323-0.537,0.003
							c0.178,0.133,0.688,0.234,0.838,0.103c0.108,0.288,0.837,0.104,0.82,0.421c-0.201,0.093-0.059-0.25-0.344-0.18
							c-0.275,0.158,0.169,0.292,0.076,0.427c0.125-0.151,0.483-0.04,0.551,0.054c-0.159,0.166-0.334-0.093-0.362,0.135
							c0.204,0.03,0.36,0.236,0.496,0.05c0.459,0.068-0.121,0.241,0.236,0.355c-0.321,0.083-0.748-0.212-0.903,0.042
							c0.308-0.049,0.428,0.296,0.882,0.151c-0.085,0.101-0.329,0.118-0.521,0.052c-0.188,0.145,0.573,0.325-0.04,0.387l0.317,0.04
							c-0.102,0.047-0.179,0.111-0.347,0.187c-0.003,0.124,0.438,0.389-0.041,0.388c0.05,0.039,0.036,0.321,0.362,0.206
							c0.197-0.18-0.245-0.197,0.199-0.304c-0.361,0.132,0.054,0.252,0.178,0.352l-0.185,0.02c0.074,0.059,0.037,0.199,0.238,0.234
							c-0.106-0.045-0.232-0.019-0.276,0.03l0.282,0.059c0.146,0.244-0.493,0.066-0.405,0.303l-0.222-0.178
							c0.048,0.039-0.214,0.124-0.124,0.237c0.258,0.041,0.568,0.12,0.768,0.156c0.113,0.134-0.289,0.064-0.025,0.195l-0.31-0.171
							c-0.084-0.025-0.424,0.123-0.417,0.302c0.089,0.114,0.46,0.291,0.6,0.107c0.005,0.091-0.152,0.219-0.339,0.148
							c0.089,0.205,0.276-0.029,0.436,0.147c-0.171,0.074-0.415,0.301-0.663,0.437l-0.431-0.183l-0.004,0.122
							c-0.343-0.157-0.261,0.081-0.625-0.007c-0.056,0.083,0.067,0.183,0.162,0.264c0.581-0.245,0.794,0.273,1.324,0.204
							c0.146,0.338-1.289,0.205-0.459,0.559c0.139-0.057,0.542,0.112,0.388-0.102c-0.058,0.209,0.532,0.146,0.313,0.393
							c-0.218-0.185-0.537,0.19-0.853-0.076c0.174,0.019,0.132-0.146,0.084-0.187c-0.204,0.084-0.534-0.022-0.534,0.19
							c0.05,0.13,0.062,0.308,0.337,0.286c0.304-0.002-0.033-0.199,0.274-0.112c0.104,0.262-0.363,0.299,0.174,0.416
							c-0.039-0.166,0.275-0.203,0.484-0.197l0.121,0.195l-0.2-0.041c-0.154,0.308,0.363,0.098,0.301,0.399l-0.402,0.132
							c-0.341-0.079,0.165-0.434-0.396-0.39c-0.027,0.193,0.254,0.264,0.105,0.444l-0.107-0.139
							c-0.021,0.07-0.763,0.121-0.337,0.407c0.165,0.147,0.197,0.043,0.407,0.053c0.055,0.314,0.265,0.415,0.292,0.618
							c-0.407-0.056-0.05,0.354-0.46,0.116c0.242-0.092,0.231-0.546-0.155-0.667c-0.487,0.099,0.075-0.242-0.413-0.321
							c-0.019,0.248-0.494,0.222-0.807,0.252c-0.024,0.067,0.106,0.137,0.153,0.179c0.292,0.038,0.291-0.051,0.594-0.047
							c-0.087,0.273,0.068,0.544,0.351,0.709c-0.148,0.087-0.44,0.045-0.466-0.065c0.083,0.331,0.025,0.683-0.088,0.991
							c0.492-0.176,0.089,0.357,0.496,0.242c0.119-0.163,0.469-0.292,0.677-0.185c-0.038,0.105-0.209-0.016-0.314,0.023
							c0.252,0.152-0.433,0.186-0.03,0.344c-0.134-0.315-0.578-0.095-0.949-0.174c0.196,0.229-0.266-0.026-0.28,0.188
							c0.193,0.228,0.339,0.506,0.404,0.754c-0.368,0.271-0.062,0.764-0.09,1.042c-0.206,0.122-0.616-0.022-0.708,0.121
							c-0.014,0.179,0.47-0.079,0.246,0.163l-0.081-0.036c0.086,0.094-0.346,0.445,0.248,0.608l-0.445-0.146
							c-0.048,0.043,0.051,0.104,0.095,0.151c-0.149-0.019-0.291,0.018-0.378-0.075c-0.333,0.115,0.008,0.344-0.001,0.523
							l0.283-0.071c0.177,0.338-0.155,0.497-0.118,0.806l-0.259-0.063l0.119,0.206c-0.244-0.097-0.439,0.021-0.248,0.16
							l-0.543-0.574c0.18-0.088,0.287,0.195,0.56,0.173c0.239-0.019,0.225-0.304-0.018-0.391c-0.051,0.095,0.006,0.11,0.083,0.207
							c-0.371-0.037-0.324-0.187-0.552-0.303c0.004,0.054-0.123,0.105-0.01,0.138c-0.157-0.134-0.159-0.235-0.139-0.404
							c0.129,0.139,0.235-0.026,0.333,0.034c-0.32-0.066-0.399-0.244-0.283-0.441c0.392-0.099-0.191-0.43-0.058-0.658
							c0.316,0.139,0.562,0.301,0.676,0.471c0.183-0.135,0.012-0.175,0.197-0.312c-0.234-0.106-0.603-0.206-0.727-0.423l0.244,0.016
							c-0.102-0.197-0.461-0.233-0.363-0.456c0.156-0.386,0.176-0.803,0.229-1.106l0.243,0.005
							c-0.508-0.207-0.154-0.582-0.369-0.825c0.269-0.377-0.2-0.86,0.229-1.045c-0.173-0.703-0.324-1.307-0.236-2.026l0.354,0.125
							c-0.26-0.132,0.204-0.083,0.151-0.21c-0.282,0.144-0.367-0.179-0.583-0.269c0.275-0.319-0.027-0.733-0.274-1.015l0.244-0.013
							c-0.459-0.284-0.053-0.627,0.014-0.988c0.1-0.042,0.327-0.111,0.297-0.217c-0.398-0.188-0.372-0.291-0.625-0.571
							c-0.005-0.208,0.085-0.547,0.233-0.763c-0.565-0.767-0.247-1.577-0.613-2.378l0.284-0.07
							c-0.638-0.762-0.134-1.757-0.486-2.416l0.492,0.039c0.138-0.22-0.154-0.475-0.497-0.402c0.138-0.221-0.265-0.515,0.129-0.672
							c0.078-0.222-0.239-0.251-0.317-0.427c0.156-0.444,0.104-0.603-0.015-1.005l-0.023,0.103c0.11,0.038,0.318,0.029,0.343-0.075
							c-0.147-0.144,0.094-0.57-0.479-0.379c0.306-0.459-0.337-0.997,0.082-1.454c-0.156,0.047-0.195-0.058-0.306-0.094
							c-0.036-0.382,0.259-0.809-0.035-1.093c0.075-0.067,0.278,0.076,0.283-0.081c-0.069-0.087-0.208,0.014-0.306-0.093
							c-0.341-0.596,0.207-1.278,0.083-1.836c-0.388-0.976-0.33-2.032-0.468-2.986h0.118c-0.477-0.278,0.383-0.797-0.312-0.988
							c0.104-0.086,0.025-0.294,0.255-0.26c-0.339-0.225,0.225-0.745-0.212-1.073l0.072,0.086c0.22-0.399-0.166-0.691,0.025-1.107
							c0.054,0.034,0.098,0.103,0.216,0.102c0.208-0.176-0.53-0.307,0.023-0.45c-0.014-0.085-0.289-0.03-0.267,0.021l0.017-0.163
							l0.002-0.041l0.001-0.021v-0.005v-0.002v-0.001c-1.769,1.667,2.41-2.271,1.979-1.865h0l0.01,0.003l0.077,0.023l0.318,0.065
							l0.67,0.035l1.375-0.058c0.587,0.426-0.1,0.947,0.464,0.603c0.026,0.114,0.061-0.209,0.051-0.092
							c0.217-0.128,0.214,0.668,0.391,0.396c-0.007-0.352,0.117-0.18,0.151-0.388c0.358,0.28,0.394,0.6,0.739,0.38l-0.048,0.178
							c0.432-0.462,0.814-0.132,1.196-0.682c2.003,0.151,3.947,0.043,5.887,0.154c1.904,0.29,3.793,0.174,5.71,0.57
							c0.432,0.5,0.47,0.488,0.976,0.316c-0.023,0.076-0.055,0.094-0.024,0.168c0.039-0.393,0.353-0.021,0.413-0.394
							c0.71,0.086,1.369-0.014,2.101-0.004c-0.116,0.041-0.176,0.361-0.038,0.337l0.145-0.25l0.023,0.111
							c0.095-0.057,0.197-0.25,0.1-0.378c1.815-0.339,3.621,0.377,5.354,0.094c0.421,0.104,0.978-0.127,1.398-0.269
							c1.335,0.311,2.634,0.368,3.551-0.44C48.171,14.898,48.505,15.851,48.061,16.285z"/>
						<path fill="#794DA6" d="M16.947,47.342c0.201,0.001,0.34-0.132,0.567,0.056C17.332,47.371,17.114,47.401,16.947,47.342z"/>
						<path fill="#794DA6" d="M19.525,43.228c-0.058-0.01,0.084-0.06,0.116-0.072c0.012,0.057,0.173,0.12,0.068,0.158
							C19.699,43.256,19.605,43.259,19.525,43.228z"/>
						<path fill="#794DA6" d="M19.711,42.077c0.175,0.024,0.308,0.277,0.315,0.427L19.711,42.077z"/>
						<path fill="#794DA6" d="M20.462,41.025c0.15-0.089,0.23-0.062,0.222,0.065L20.462,41.025z"/>
						<path fill="#794DA6" d="M20.066,40.938c-0.002-0.089,0.102-0.131,0.204-0.172C20.119,40.765,20.358,40.976,20.066,40.938z"/>
						<path fill="#794DA6" d="M20.604,38.609c-0.014-0.056-0.16-0.177,0.035-0.229C20.503,38.438,20.861,38.653,20.604,38.609z"/>
						<path fill="#794DA6" d="M20.338,37.528c0.011-0.035,0.043-0.05-0.005-0.089c0.08-0.065,0.208,0.001,0.224,0.055L20.338,37.528
							z"/>
						<polygon fill="#794DA6" points="18.431,18.155 18.529,18.261 18.354,18.261 						"/>
						<path fill="#794DA6" d="M22.917,18.295c0.128-0.095,0.059,0.172,0.075,0.2C22.886,18.502,23.057,18.287,22.917,18.295z"/>
						<polygon fill="#794DA6" points="27.571,17.942 27.536,17.943 27.583,17.586 						"/>
					</g>
				</g>
			</g>
			<g>
				<path fill="#663399" d="M48.728,124.795c-7.488-2.827-32.077,0.631-32.077,0.631s4.966-23.165,0.773-32.539"/>
				<g>
					<path fill="none" d="M48.728,124.795c-7.488-2.827-32.077,0.631-32.077,0.631s4.966-23.165,0.773-32.539"/>
					<g>
						<path fill="#794DA6" d="M48.357,125.361c0.246-0.013-0.013-0.322,0.19-0.087C48.467,125.398,48.389,125.486,48.357,125.361z"
							/>
						<path fill="#794DA6" d="M17.271,93.795c1.157,0.401,0.547,1.654,1.262,2.336c0.06,0.089-0.496,0.08-0.33,0.271
							c0.916,0.648,0.594,2.053,0.194,3.062l-0.146-0.046c-0.088,0.194,0.392,0.382,0.34,0.587
							c-0.093,0.009-0.137-0.053-0.264,0.004c0.287,0.027,0.155,0.348,0.371,0.417c-0.105,0.087-0.33,0.095-0.449,0.203l0.33,0.093
							c0.786,0.272-0.004,0.772,0.419,1.188c-0.076-0.019-0.138-0.06-0.208-0.022c0.479,0.682,0.398,1.566,0.58,2.352
							c-0.114-0.032-0.322-0.062-0.45-0.017c0.338,0.04,0.434,0.284,0.493,0.495c-0.352,0.09,0.308,0.366,0.107,0.611l-0.076-0.022
							c0.36,0.191-0.219,0.267,0.215,0.426l-0.277,0.108c0.489,0.095-0.263,0.257-0.017,0.415l0.101-0.001
							c0.115,0.146-0.134,0.212-0.055,0.348l-0.057,0.01c0.119,0.314-0.16,0.483,0.225,0.492c-0.311,0.095-0.132-0.306-0.585-0.155
							c0.356,1.031,0.195,2.076,0.144,3.098c-0.165,0.104-0.218,0.173-0.367,0.188c0.069,0.107,0.037,0.388,0.225,0.496
							c-0.005-0.034-0.202,0.05-0.226,0.102c-0.162,0.172,0.402,0.238,0.212,0.427c-0.094-0.09-0.216-0.128-0.36-0.113
							c0.283,0.199,0.214,0.427,0.292,0.641c-0.062-0.037-0.096-0.091-0.216-0.094c0.318,0.256-0.108,0.401,0.087,0.618
							l-0.214-0.096c-0.297,0.289,0.454,0.14,0.27,0.397c-0.064-0.073-0.152-0.059-0.241-0.079c0.378,0.296,0.194,0.693,0.303,0.963
							l-0.089-0.021c0.019,0.283-0.139,0.558,0.001,0.883c-0.11,0.1-0.534-0.099-0.485,0.202c0.443,0.042,0.125,0.519,0.645,0.407
							c-0.098,0.243-0.318,0.617-0.19,0.803c-0.152-0.134-0.556,0.052-0.565-0.16l-0.289,0.122
							c-0.177-0.046,0.083-0.152-0.151-0.132c0.005,0.105,0.139,0.43,0.054,0.513c0.245,0.228,0.727,0.472,0.741,0.792
							c-0.152-0.17-0.498,0.017-0.56-0.093l0.786,0.552c0.007,0.106-0.35-0.026-0.255,0.141c0.117,0.009,0.181,0.084,0.271,0.144
							c-0.056,0.032,0.044,0.448-0.396,0.43c-0.175,0.021-0.064-0.182-0.237-0.09c-0.025,0.191,0.123,0.223,0.101,0.415
							l-0.059-0.005c-0.084,0.116,0.128,0.399,0.389,0.298c0.026-0.086-0.266-0.005-0.12-0.117c0.238,0.127,0.275,0.361,0.25,0.554
							c-0.058-0.076-0.175-0.086-0.294-0.131c0.302,0.31,0.368,0.601,0.467,0.912c0.205,0.037-0.359-0.167-0.244-0.192
							c-0.341,0.323,0.28,0.827-0.187,1.066c-0.028-0.056,0.297,0.021,0.238,0.016c-0.055,0.174-0.352,0.115-0.261,0.25
							c-0.177-0.018,0.032,0.154,0.066,0.283c0.116,0.083-0.091,0.017-0.092-0.091c0.121,0.19,0.278,0.903-0.047,1.241
							c0.117,0.013,0.381,0.312,0.353,0.397l-0.264-0.083c-0.176,0.052-0.03,0.3-0.263,0.272c0.294,0.248-0.15-0.774,0.058-0.475
							c-0.237,0.025,0.367,0.433,0.008,0.312c-0.021,0.178,0.251,0.406-0.031,0.528c0.053-0.041-0.349-0.212-0.354-0.066
							c0,0.26,0.115,0.096,0.167,0.316l0.086,0.148c0.261,0.058-0.079,0.218,0.233,0.181c-0.223-0.011,0.063,0.392-0.366,0.282
							l-0.336-0.102c0.005,0.113,0.328,0.248,0.462,0.362l-0.163,0.008c0.522,0.12-0.095,0.251,0.284,0.461
							c-0.227,0.191-0.135,0.582-0.483,0.625l0.005,0.011l0.003,0.005h0l0,0c-0.579-0.621,1.295,1.392-1.297-1.394h0l0.001-0.001
							l0.001-0.003l0.015-0.018l0.029-0.034l0.058-0.069l0.118-0.118c0.082-0.065,0.169-0.096,0.277-0.054
							c-0.033,0.056-0.086,0.078-0.082,0.193c0.147,0.139,0.16-0.005,0.264-0.105c-0.015,0.082,0.294,0.276,0.458,0.445
							c0.154-0.181,0.058-0.459,0.053-0.636c0.227,0.503,0.453-0.399,0.713,0.05c-0.052,0.08-0.224,0.289-0.061,0.402
							c0.225,0.502,0.274-0.426,0.563-0.208l-0.117-0.426c0.148,0.255,0.35-0.298,0.377,0.146c0.067-0.166,0.322,0.108,0.242-0.312
							c0.467,0.309,1.008-0.342,1.357,0.392c0.053-0.078,0.212-0.022,0.157-0.237c-0.128-0.225-0.122,0.185-0.178,0.028
							c0.053-0.019,0.052-0.137,0.051-0.195c0.143,0.082,0.25,0.101,0.166,0.467c0.323,0.229,0.221-0.754,0.615-0.63
							c0.002,0.177,0.038,0.24,0.144,0.2l0.175-0.323c0.25,0.043,0.181,0.384,0.219,0.681c0.123-0.066,0.282-0.069,0.317-0.298
							l0.197,0.356c-0.144-0.257,0.087-0.19,0.14-0.269l-0.053,0.078c0.037,0.125,0.178,0.031,0.25-0.014
							c-0.038-0.182-0.198-0.241-0.287-0.286c0.052-0.137,0.158-0.117,0.229-0.28c0.002,0.294,0.233,0.186,0.338,0.206
							c0.125,0.051,0.106-0.275,0.142-0.27c0.019,0.151,0.195,0.007,0.125,0.228c-0.035,0.054-0.107-0.137-0.16,0.004
							c0.089,0.104,0.107,0.368,0.249,0.159c0.107-0.157-0.09-0.572,0.159-0.412l-0.088,0.306l0.231,0.13l-0.018-0.267l0.035,0.124
							c0.036-0.287,0.321-0.12,0.338-0.44c0.106-0.039,0.248,0.161,0.355,0.181l-0.018,0.025c0.143,0.143,0.301,0.025,0.391-0.164
							v0.059c0.072,0.015,0.232-0.042,0.305-0.207c0.194,0.185,0.153,1,0.316,0.647c0.177-0.026,0.234-0.514,0.146-0.678
							c0.336,0.15,0.662-0.317,0.996,0.069c0.037-0.112,0.002-0.177,0.091-0.249c0.479,0.061,0.971-0.396,1.388,0.096
							c-0.127,0.123,0.013,0.269,0.027,0.419c0.093-0.247,0.155,0.236,0.163-0.175c-0.03-0.24-0.028-0.358-0.169-0.444
							c0.271-0.152,0.7-0.186,0.873,0.026c-0.086-0.105-0.031-0.184,0.025-0.261c0.009,0.386,0.22,0.427,0.367,0.279l0.005-0.236
							l0.12,0.233c0.055-0.079,0.031-0.498,0.203-0.283l0.064,0.247c0.148-0.202,0.356-0.542,0.547-0.354l0.167,0.332
							c0.073-0.042,0.187-0.256,0.047-0.346c0.315,0.187,0.511,0.199,0.625,0.489c0.473-0.753,1.229-0.836,1.84-0.807l-0.009,0.176
							c0.171,0.156,0.069-0.311,0.189-0.194c-0.044,0.17,0.142,0.358,0.024,0.569c0.242,0.174,0.285-0.318,0.433-0.404
							c0.013-0.232-0.115,0.152-0.099-0.142c0.022-0.083,0.331,0.166,0.352-0.185c0.065,0.134,0.03,0.393,0.005,0.535l0.135-0.176
							c0.191,0.399-0.364,0.746-0.159,1.24l0.128-0.06c0.14,0.358-0.325,0.427,0.006,0.537c0.133-0.179,0.233-0.69,0.1-0.839
							c0.292-0.11,0.102-0.838,0.423-0.823c0.095,0.201-0.254,0.061-0.181,0.345c0.162,0.274,0.295-0.171,0.433-0.078
							c-0.154-0.125-0.042-0.482,0.052-0.552c0.169,0.157-0.093,0.335,0.139,0.361c0.03-0.204,0.237-0.364,0.048-0.497
							c0.067-0.461,0.246,0.12,0.36-0.237c0.086,0.32-0.213,0.749,0.046,0.903c-0.051-0.309,0.3-0.429,0.151-0.883
							c0.103,0.085,0.121,0.328,0.054,0.521c0.147,0.188,0.33-0.573,0.394,0.039l0.041-0.317c0.048,0.103,0.114,0.18,0.191,0.348
							c0.125,0.003,0.395-0.438,0.394,0.04c0.039-0.051,0.326-0.036,0.209-0.363c-0.183-0.197-0.2,0.245-0.31-0.198
							c0.134,0.361,0.257-0.055,0.358-0.179l0.021,0.185c0.061-0.074,0.203-0.036,0.238-0.237c-0.046,0.106-0.019,0.232,0.031,0.275
							l0.06-0.282c0.248-0.146,0.066,0.493,0.308,0.405l-0.181,0.222c0.04-0.048,0.126,0.214,0.241,0.124
							c0.042-0.258,0.123-0.568,0.16-0.769c0.137-0.113,0.065,0.289,0.198,0.025l-0.175,0.31c-0.026,0.084,0.124,0.424,0.307,0.418
							c0.116-0.089,0.298-0.458,0.111-0.6c0.093-0.004,0.223,0.153,0.15,0.341c0.209-0.088-0.029-0.276,0.152-0.436
							c0.075,0.172,0.305,0.416,0.442,0.665l-0.188,0.43l0.124,0.005c-0.161,0.343,0.081,0.262-0.011,0.625
							c0.084,0.057,0.187-0.066,0.269-0.16c-0.245-0.583,0.283-0.794,0.216-1.323c0.346-0.144,0.199,1.29,0.566,0.462
							c-0.057-0.139,0.118-0.541-0.101-0.389c0.212,0.059,0.154-0.531,0.403-0.311c-0.19,0.217,0.189,0.537-0.085,0.853
							c0.021-0.175-0.147-0.133-0.189-0.085c0.084,0.204-0.026,0.534,0.189,0.535c0.132-0.05,0.313-0.06,0.293-0.336
							c0.001-0.304-0.203,0.031-0.111-0.275c0.267-0.103,0.301,0.367,0.425-0.169c-0.169,0.036-0.205-0.278-0.196-0.487l0.201-0.118
							l-0.043,0.2c0.313,0.158,0.104-0.361,0.411-0.295l0.13,0.404c-0.084,0.34-0.441-0.171-0.403,0.39
							c0.197,0.031,0.272-0.25,0.454-0.098l-0.143,0.105c0.071,0.021,0.113,0.765,0.41,0.343c0.152-0.162,0.047-0.196,0.059-0.405
							c0.321-0.05,0.427-0.259,0.635-0.283c-0.063,0.405,0.361,0.056,0.112,0.462c-0.09-0.242-0.555-0.239-0.683,0.146
							c0.094,0.488-0.246-0.079-0.332,0.408c0.251,0.021,0.219,0.497,0.246,0.81c0.068,0.025,0.141-0.104,0.184-0.15
							c0.043-0.291-0.048-0.292-0.04-0.594c0.277,0.092,0.555-0.06,0.728-0.34c0.086,0.149,0.039,0.44-0.074,0.465
							c0.338-0.08,0.695-0.015,1.006,0.109c-0.169-0.497,0.366-0.079,0.258-0.489c-0.163-0.123-0.287-0.478-0.174-0.682
							c0.107,0.04-0.02,0.208,0.018,0.314c0.161-0.248,0.18,0.438,0.352,0.04c-0.326,0.125-0.111,0.575-0.201,0.943
							c0.238-0.189-0.033,0.266,0.184,0.286c0.236-0.188,0.523-0.325,0.777-0.383c0.265,0.372,0.776,0.085,1.06,0.128
							c0.116,0.212-0.045,0.615,0.096,0.714c0.182,0.022-0.062-0.474,0.175-0.238l-0.04,0.079c0.1-0.082,0.437,0.366,0.63-0.219
							l-0.168,0.437c0.042,0.051,0.107-0.046,0.158-0.087c-0.026,0.147,0.005,0.291-0.094,0.374c0.101,0.338,0.349,0.008,0.53,0.025
							l-0.057-0.285c0.353-0.159,0.495,0.188,0.812,0.173l-0.081,0.254l0.217-0.104c-0.114,0.236-0.008,0.438,0.146,0.259
							l-0.614,0.501c-0.077-0.186,0.214-0.272,0.21-0.547c-0.004-0.24-0.294-0.246-0.395-0.01c0.093,0.057,0.111,0.001,0.214-0.069
							c-0.061,0.368-0.208,0.312-0.337,0.53c0.054,0,0.098,0.13,0.138,0.02c-0.144,0.147-0.245,0.143-0.411,0.11
							c0.146-0.119-0.013-0.236,0.052-0.33c-0.084,0.315-0.267,0.387-0.459,0.263c-0.081-0.396-0.441,0.172-0.663,0.028
							c0.152-0.31,0.327-0.549,0.504-0.654c-0.129-0.189-0.177-0.021-0.308-0.211c-0.118,0.229-0.233,0.593-0.456,0.708l0.025-0.243
							c-0.202,0.093-0.252,0.45-0.471,0.343c-0.382-0.17-0.803-0.198-1.107-0.261l0.012-0.242c-0.222,0.502-0.59,0.138-0.84,0.346
							c-0.374-0.281-0.871,0.185-1.049-0.248c-0.713,0.164-1.322,0.3-2.048,0.209l0.129-0.354c-0.135,0.26-0.082-0.204-0.211-0.152
							c0.143,0.283-0.184,0.366-0.276,0.583c-0.321-0.277-0.741,0.022-1.026,0.268l-0.011-0.243
							c-0.289,0.458-0.633,0.046-0.998-0.018c-0.042-0.1-0.111-0.327-0.219-0.297c-0.191,0.398-0.294,0.372-0.577,0.625
							c-0.209,0.005-0.553-0.084-0.771-0.232c-0.773,0.563-1.593,0.255-2.4,0.624l-0.073-0.283
							c-0.765,0.642-1.774,0.149-2.437,0.509l0.035-0.492c-0.224-0.136-0.479,0.159-0.401,0.501
							c-0.224-0.136-0.517,0.271-0.681-0.121c-0.225-0.077-0.251,0.242-0.428,0.322c-0.451-0.149-0.61-0.095-1.015,0.029
							l0.104,0.022c0.037-0.111,0.025-0.318-0.081-0.342c-0.143,0.148-0.577-0.086-0.377,0.483c-0.468-0.3-1.002,0.352-1.47-0.059
							c0.05,0.155-0.055,0.195-0.091,0.307c-0.385,0.042-0.821-0.245-1.103,0.054c-0.069-0.073,0.072-0.279-0.086-0.281
							c-0.087,0.07,0.018,0.208-0.089,0.308c-0.596,0.35-1.295-0.182-1.857-0.048c-0.979,0.406-2.047,0.373-3.009,0.532
							l-0.002-0.117c-0.271,0.482-0.813-0.365-0.992,0.335c-0.089-0.102-0.298-0.018-0.269-0.249
							c-0.219,0.344-0.757-0.206-1.079,0.239l0.085-0.074c-0.409-0.21-0.694,0.184-1.119,0.004c0.033-0.055,0.102-0.101,0.098-0.218
							c-0.183-0.203-0.296,0.537-0.453-0.011c-0.086,0.017-0.022,0.289,0.028,0.266l-0.083-0.008l-0.041-0.003h-0.01l-0.005-0.001
							h-0.003c0.417,0.447-3.626-3.895-1.915-2.057l0-0.001l0-0.001l0.007-0.019l0.054-0.15l0.077-0.32l0.059-0.675l-0.01-1.39
							c0.446-0.579,0.943,0.13,0.618-0.449c0.115-0.022-0.207-0.068-0.09-0.055c-0.121-0.223,0.675-0.195,0.409-0.383
							c-0.352-0.003-0.175-0.123-0.382-0.163c0.289-0.354,0.609-0.382,0.401-0.736l0.176,0.054
							c-0.448-0.448-0.105-0.825-0.643-1.226c0.199-2.02,0.155-3.981,0.295-5.937c0.339-1.917,0.231-3.82,0.659-5.751
							c0.503-0.432,0.507-0.471,0.324-0.981c0.077,0.024,0.094,0.057,0.168,0.025c-0.393-0.041-0.027-0.355-0.4-0.418
							c0.09-0.716,0.014-1.385,0.018-2.12c0.043,0.116,0.365,0.178,0.338,0.039l-0.254-0.146l0.111-0.022
							c-0.06-0.096-0.256-0.198-0.381-0.102c-0.348-1.823,0.389-3.657,0.063-5.398c0.106-0.432-0.112-1.006-0.259-1.431
							c0.275-1.36,0.352-2.68-0.462-3.729C15.871,93.58,16.854,93.32,17.271,93.795z"/>
						<path fill="#794DA6" d="M48.083,125.324c0.017-0.199-0.108-0.348,0.098-0.56C48.141,124.944,48.155,125.162,48.083,125.324z"
							/>
						<path fill="#794DA6" d="M44.034,122.559c-0.011,0.058-0.059-0.086-0.07-0.118c0.058-0.011,0.127-0.17,0.163-0.064
							C44.067,122.385,44.068,122.479,44.034,122.559z"/>
						<path fill="#794DA6" d="M42.864,122.343c0.028-0.174,0.288-0.304,0.441-0.307L42.864,122.343z"/>
						<path fill="#794DA6" d="M41.804,121.575c-0.089-0.151-0.06-0.231,0.069-0.221L41.804,121.575z"/>
						<path fill="#794DA6" d="M41.709,121.97c-0.091,0.001-0.132-0.104-0.173-0.206C41.533,121.915,41.751,121.679,41.709,121.97z"
							/>
						<path fill="#794DA6" d="M39.341,121.408c-0.058,0.015-0.182,0.159-0.234-0.036C39.166,121.509,39.386,121.152,39.341,121.408z
							"/>
						<path fill="#794DA6" d="M38.238,121.668c-0.036-0.012-0.05-0.043-0.091,0.005c-0.066-0.08,0.002-0.208,0.057-0.224
							L38.238,121.668z"/>
						<polygon fill="#794DA6" points="18.605,123.843 18.71,123.742 18.715,123.916 						"/>
						<path fill="#794DA6" d="M19.069,119.293c-0.091-0.133,0.174-0.056,0.203-0.071C19.275,119.329,19.065,119.15,19.069,119.293z"
							/>
						<polygon fill="#794DA6" points="18.831,114.568 18.832,114.604 18.476,114.55 						"/>
					</g>
				</g>
			</g>
		</g>
		<g>
			<path fill="#993399" d="M75.047,9.149c34.096,1.994,60.112,31.247,58.118,65.342c-1.993,34.089-31.243,60.116-65.338,58.122
				C33.735,130.62,7.715,101.36,9.708,67.271C11.702,33.177,40.955,7.156,75.047,9.149z"/>
			<g>
				<path fill="none" d="M75.047,9.149c34.096,1.994,60.112,31.247,58.118,65.342c-1.993,34.089-31.243,60.116-65.338,58.122
					C33.735,130.62,7.715,101.36,9.708,67.271C11.702,33.177,40.955,7.156,75.047,9.149z"/>
				<g>
					<g>
						<g>
							<path fill="#A346A3" d="M75.06,8.924c0.6-0.302-0.188-0.142-0.904-0.082L75.06,8.924z"/>
							<path fill="#A346A3" d="M74.155,8.843l-0.641-0.059C73.686,8.844,73.912,8.854,74.155,8.843z"/>
							<path fill="#A346A3" d="M68.158,8.605c1.373-0.376,3.029,0.099,3.896-0.348C70.656,8.014,68.471,8.028,68.158,8.605z"/>
							<polygon fill="#A346A3" points="70.237,8.845 70.406,8.612 69.208,8.967 							"/>
							<polygon fill="#A346A3" points="71.1,9.066 70.928,8.979 69.053,9.202 							"/>
							<path fill="#A346A3" d="M63.483,8.872l1.375-0.194c1.325,0.197-0.808,0.506,0.077,0.64c1.71-0.162,0.528-0.719,2.696-0.814
								c-0.193-0.284-3.458,0.324-3.162-0.177C62.625,8.349,64.415,8.611,63.483,8.872z"/>
							<path fill="#A346A3" d="M11.853,64.572l-0.065,0.184C11.846,64.687,11.891,64.614,11.853,64.572z"/>
							<polygon fill="#A346A3" points="13.821,86.266 13.986,87.148 14.008,86.775 							"/>
							<path fill="#A346A3" d="M13.975,50.885l0.378-0.801C14.24,50.221,14.115,50.454,13.975,50.885z"/>
							<polygon fill="#A346A3" points="97.415,127.811 97.362,127.981 97.403,127.976 97.584,127.763 							"/>
							<path fill="#A346A3" d="M25.345,107.488l0.649,0.728C25.646,107.771,25.458,107.569,25.345,107.488z"/>
							<polygon fill="#A346A3" points="17.046,43.454 16.88,43.748 17.125,43.407 17.054,43.44 							"/>
							<path fill="#A346A3" d="M12.999,79.199c-0.014,0.297,0.04,0.558,0.076,0.778L12.999,79.199z"/>
							<path fill="#A346A3" d="M43.044,14.611c-0.371,0.148-0.648,0.329-0.88,0.514C42.418,15.071,42.707,14.932,43.044,14.611z"/>
							<path fill="#A346A3" d="M35.965,18.855l0.039-0.028C35.932,18.807,35.918,18.83,35.965,18.855z"/>
							<path fill="#A346A3" d="M31.715,21.98l0.065-0.068C31.707,21.919,31.677,21.933,31.715,21.98z"/>
							<path fill="#A346A3" d="M42.164,15.125c-0.688,0.154-1.167-0.271-1.629,0.719l0.2-0.006
								c-0.538,0.129-1.122,0.687-1.622,1.038l0.268,0.015c0.271-0.148,0.641-0.315,1.213-0.573
								C41.316,16.091,41.589,15.59,42.164,15.125z"/>
							<path fill="#A346A3" d="M11.741,64.476C11.87,64.414,11.865,63.883,11.741,64.476L11.741,64.476z"/>
							<path fill="#A346A3" d="M12.351,57.679l-0.161,0.653L12.351,57.679z"/>
							<path fill="#A346A3" d="M23.164,34.529l-0.09,0.084C23.106,34.686,23.155,34.598,23.164,34.529z"/>
							<path fill="#A346A3" d="M12.055,58.939l0.135-0.607L12.055,58.939z"/>
							<path fill="#A346A3" d="M18.654,40.824l-0.067,0.084L18.654,40.824z"/>
							<path fill="#A346A3" d="M124.522,33.992c0.354,0.431,0.391,0.8,0.634,1.264c1.011,0.739-1.327-2.026-0.065-0.821
								c-0.291-0.434-0.565-0.744-0.828-1.028l0.074,0.854C125.034,35.023,124.073,33.61,124.522,33.992z"/>
							<path fill="#A346A3" d="M103.758,125.484l-0.224,0.077c0.232,0.08,0.152,0.229,0.946-0.181
								c0.485-0.662-0.722-0.38,0.212-1.373c-0.194,0.167-0.52,0.364-0.837,0.526C104.438,124.456,104.136,124.977,103.758,125.484z
								"/>
							<path fill="#A346A3" d="M103.855,124.534l-0.043,0.003l-0.212,0.019l-0.468,0.23
								C103.3,124.791,103.567,124.684,103.855,124.534z"/>
							<path fill="#A346A3" d="M132.582,50.403l0.143,0.604C132.713,50.695,132.659,50.523,132.582,50.403z"/>
							<path fill="#A346A3" d="M20.19,109.425l-0.565-0.497C19.896,109.231,20.062,109.359,20.19,109.425z"/>
							<polygon fill="#A346A3" points="91.994,130.468 91.365,130.59 90.983,130.726 							"/>
							<path fill="#A346A3" d="M121.343,102.485c0.13,0.587,0.204-0.258,0.816-0.88l0.17-0.819
								C121.906,101.375,121.684,102.022,121.343,102.485z"/>
							<polygon fill="#A346A3" points="124.257,33.34 124.218,33.358 124.263,33.406 							"/>
							<path fill="#A346A3" d="M129.567,80.776l0.143-0.36C129.668,80.484,129.62,80.597,129.567,80.776z"/>
							<path fill="#A346A3" d="M99.397,126.731c-0.929,0.518-1.891,0.964-2.891,1.328l0.908-0.249
								C97.744,127.476,99.128,127.185,99.397,126.731z"/>
							<path fill="#A346A3" d="M113.121,112.279l-0.392-0.014c-1.631,2.629-4.912,4.03-6.234,6.202
								c-3.576,1.219-1.501,2.069-4.777,3.184l0.165,0.059c-9.622,5.559-21.259,8.029-31.516,8.137l0.026-0.198
								c-16.439-0.577-32.361-7.509-43.086-19.98c-1.097-1.069-0.852-0.065-1.856-0.957c-0.35-0.461-1.192-1.465-1.002-1.62
								c0.808,0.785,0.583,0.161,0.896,0.397c-1.253-1.371-2.308-3.524-3.45-4.738l0.497,1.326
								c-0.464-0.463-0.948-1.357-1.257-1.852c0.273,0.118,0.103-0.764,0.442-0.39c-2.505-2.542-1.022-2.521-2.703-4.907
								c-0.981-0.148-2.825-3.365-4.232-5.486c-0.13-0.412-0.164-0.856-0.243-1.284c0.515,1.635,0.384-0.162,1.141,1.808
								c-0.543-1.676-1.125-3.205-1.554-4.816c-0.068,0.356-0.304,0.34-0.572-0.287c-0.185-1.021,0.028-1.169-0.139-2.328
								c0.146,0.36,0.266,0.726,0.462,1.07c0.022-0.8-0.373-1.39-0.569-2.088c0.23-0.29-0.052-2.002,0.313-1.758
								c-0.654-1.466-0.648-2.029-1-3.681c-0.132,1.788-0.408-0.403-0.622-0.183c0.114,0.656,0.159,1.322,0.329,1.968
								c-0.184-2.809,0.151,0.902,0.658,0.604c0.037,1.331-1.129-1.654-0.627,0.509c-0.782-2.568-0.405-3.179-1.121-5.853
								c0.244,1.637-0.341-0.29-0.403,0.605c-0.214-2.097,0.118-0.532,0.365-1.2c-0.15-1.133,0.182-1.56-0.173-2.597
								c0.16-1.849,0.357,0.27,0.56-0.661c0.2,0.669-0.217,5.119,0.844,4.537c0.1,0.942,0.607,2.044,0.708,3.393
								c0.029-1.203,0.219-2.905-0.157-4.331l-0.599-0.034c-0.123-1.108-0.562-1.321-0.484-2.134
								c0.167,0.423,0.425-0.358,0.384-1.254c-0.086,0.255-0.071,0.616-0.173,0.52c-0.03-1.666-0.434-1.902-0.53-3.911
								c-0.166,1.647-0.346,1.985-0.617,3.548c-0.413-0.418-0.051-1.105-0.095-2.024c0.056,0.14,0.066,0.331,0.15,0.064
								l-0.192-0.987c0.2-2.074,0.586,0.282,0.826-1.409c0.477-1.141-0.019-1.612,0.277-2.493l-0.125,0.163
								c0.028-0.197,0.054-0.337,0.078-0.442l-0.03,0.012c0.059-1.094,0.219-2.258-0.056-2.615c0.141-0.095,0.065-0.961,0.072-1.325
								c0.005-0.618-0.044-2.145,0.635-2.937l-0.012,0.068c0.345-1.333,0.717-2.336,0.818-2.005c0.193-0.708,0.51-1.381,0.758-2.071
								l0.315,0.338c0.503-1.925,0.217-1.807,0.243-3.259c0.578-1.322,1.56-3.635,1.753-4.595c0.079-0.141,0.177-0.362,0.316-0.739
								l-0.479,0.708c0.651-1.436,0.355-1.365,0.806-2.307c-0.138,0.172-0.174,0.188,0.167-0.294l0.319-0.509
								c0.012,0.066-0.108,0.268-0.24,0.463l0.214-0.106c0.994-0.902,0.727-1.808,1.516-2.92l-0.201,0.442
								c0.466-0.614,1.479-1.261,1.333-1.716c0.118-0.133,0.224-0.38,0.294-0.644l0.367-0.424l-0.364,0.417
								c0.098-0.345,0.165-0.695,0.263-0.685l1.161-1.554c0.256-0.269,0.498-0.707,0.682-1.074l0.322-0.171
								c0.379-0.594,0.462-0.54,0.452-0.443c1.975-1.533,2.176-3.104,4.271-4.768c0.147-0.551-0.712,0.137-0.858,0.12
								c0.073-0.493,1.07-1.65,1.496-2.308c1.117-0.582,3.959-2.828,3.933-1.967c1.712-1.324-0.751,0.165-0.031-0.664l0.208-0.14
								c-0.625,0.427-1.226,0.635-1.658,0.792c-0.358-0.144,1.089-1.453,1.617-1.752l-0.047,0.59
								c1.477-1.385,0.742-1.621,1.476-2.767c1.378-0.894,0.876,0.011,1.375,0.102c0.404-0.405,0.883-0.709,1.328-1.062l0.185,0.264
								c0.868-0.676,0.916-1.068,2.262-1.806c-0.753,0.863,2.064-1.004,1.01,0.182c0.752-0.374,0.638-1.046,1.243-0.867
								c0.341-0.571-0.763,0.193-1.154,0.37c-0.572-0.278,1.468-1.165,2.325-1.721c0.196,0.186-0.452,0.581,0.682,0.173
								c0.123-0.284,0.73-0.776,1.434-0.882c-0.134-0.268,1.146-0.741,1.795-0.945c-0.741,0.204-1.789,0.579-1.479,0.073
								c0.462-0.416,0.906-0.687,2.194-1.155l-0.931,0.221c0.917-0.889,1.961-0.438,3.401-1.193
								c-0.562,0.441-0.956,0.604-1.415,1.047c0.647-0.429,1.9-1.204,2.962-1.798l1.46,0.052c0.09-0.274,1.472-0.421,1.378-0.729
								c1.686-0.282-1.194,0.764-1.277,1.036c2.083-0.404,1.471-1.003,3.552-1.116l-0.567,0.484c0.644-0.187,1.9-0.72,2.027-0.552
								c-0.023-0.097-0.351-0.017-0.755,0.101c0.239-0.741,2.964-1.049,2.58-1.662l-0.936,0.14c1.392-0.404,2.337-1.049,3.48-1.034
								c0.878,0.047-0.523,0.562-0.987,0.828c1.346-0.18,0.957-1.021,2.605-1.098c-0.875-0.026-0.747-0.275-0.248-0.494
								c-0.966,0.001-2.939,0.36-2.55,0.538l0.353-0.003c-0.057,0.186-0.556,0.349-0.795,0.484
								c-1.273,0.249-0.652-0.179-0.933-0.255c-2.157,0.315-0.041,0.686-1.981,1.044l-0.284-0.075
								c-0.892,0.347-2.271,0.859-2.41,1.305c-0.943-0.165-2.072,0.803-3.05,0.83c-0.47-0.844,3.217-0.903,4.142-1.719
								c-1.042,0.118,0.448-0.62,0.828-0.93l-3.051,1.33c-0.283-0.049-1.354-0.219-1.824,0.282l0.257-0.055
								c-1.212,0.5-0.77,0.693-1.85,1.007c-0.19-0.015,0.079-0.288,0.137-0.381c-0.994,0.316-0.728,0.532-1.336,0.875
								c-0.993,0.317,0.34-0.558-0.502-0.325c-0.981,0.798-1.803,0.649-2.77,1.071c0.573,0.218-3.379,2.518-1.187,1.903l-2.01,1.48
								c-0.816,0.118,1.151-1.46,0.339-1.541l1.771-0.916c-0.597-0.436-3.485,2.333-5.015,2.316
								c-0.91,0.565-0.636,0.497-2.513,1.338l0.617,0.307c-0.948,0.462-1.417,0.382-1.518,0.319
								c-0.495,0.374-0.968,0.668-1.46,0.963c0.074-0.155,0.207-0.338,0.501-0.57c-0.854,0.174-0.989,0.391-1.095,0.716
								c-0.246,0.391-0.765,0.784-1.283,1.195l0.33-0.551c-0.287,0.296-0.632,0.657-0.601,0.77l-0.577,0.533
								c0.203-0.03,0.761-0.035,1.584-0.5c-2.019,1.365-3.493,2.562-5.271,3.731c-0.062-0.18,0.42-0.952,0.217-0.783
								c-0.816,0.677-1.424,1.693-1.172,1.808l-0.397,0.423c-0.247,0.035-0.536,0.097-0.914,0.43
								c-0.12,0.042-0.291,0.144-0.562,0.383c0.053,0.532-1.373,1.953-1.507,2.415c0.343-0.331,0.713-0.776,1.081-1.236
								c-0.311,0.856-0.517,1.661-1.126,1.991c0.777-1.389-1.451,0.958-0.03-0.931c-1.531,0.886-0.23,0.939-1.523,2.144
								l-0.919,0.725c-0.16-0.343,1.054-1.519,0.782-1.396l-0.477,0.633c0.321-0.758,2.342-2.973,3.307-4.6
								c-0.9,0.855-1.712,1.798-2.575,2.698c-2.812,3.753-6.233,8.569-7.416,12.425l0.073-0.151
								c-0.004,0.076,0.037,0.135,0.126,0.243L14.9,42.478l-0.119,0.811c-0.642,0.669-1.362,2.167-2.164,3.373
								c0.551-0.736,0.55-0.734,0.822-0.713c0.246,0.297,0.328,0.476-0.31,1.629c-0.232-0.077,0.097-0.821-0.47-0.001
								c0.311-0.417,0.293,0.058,0.095,0.593c-0.478,0.606-0.812,1.799-1.072,1.725c0.042-0.35,0.207-0.588,0.312-0.796
								c0.044-0.352-0.636,1.26-0.511,0.215l-0.347,1.309c-0.436,0.687-0.146-0.601-0.366-0.345
								c-0.482,2.219-0.455,3.426-0.678,5.446c-0.107-0.125-0.631-0.278-0.482-0.218c-0.489,1.499-0.119,3.402-0.439,5.123
								c-0.105-0.28,0.095-0.915,0.129-1.452c-1.208,5.288-1.402,9.719-1.795,14.852l0.681,1.289l-0.249,1.356
								c0.059,5.41,1.436,9.439,3.106,14.23c0.507,1.505-0.125,1.054,0.008,1.805c1.347,3.248,2.032,3.901,3.723,6.757
								c-0.366-0.324-1.167-0.808-0.514,0.478c0.271,0.164,0.578,0.202,0.914,1.049l-0.368-0.327
								c0.171,0.851,0.745,1.453,1.476,3.016c1.719,2.513,3.518,4.822,5.646,6.282c1.622,2.099-0.643,0.164-0.423,0.629
								c-1.023-1.596-0.902-0.961-1.316-1.166c0.757,0.688,1.589,1.562,1.605,2.221c0.927,1.051,1.226,1.636,2.417,2.42
								c-0.589-0.404-0.836-0.982-0.252-0.633c0.691,0.908,2.827,2.872,2.364,3.113c4.773,4.593,10.771,9.084,17.187,12.178
								c1.209,0.246-0.787-0.451-0.107-0.354c1.732,0.388,1.185,0.706,2.568,1.015l-0.636,0.021c1.884,0.88,4.081,1.302,6.073,1.59
								c-0.413,0.193,1.481,0.745-0.155,0.415c0.934,0.245,1.674,1.941,2.491,1.903l-0.691-1.58c0.086-0.106,1.362,0.384,1.256,0.26
								c0.727,0.547,1.699,0.988,2.276,1.131c0.209,0.367-1.245,0.024-2.029-0.208c-0.279,0.555,2.619,0.937,1.329,1.184
								c1.754,0.284-0.182-0.325,0.9-0.301l1.48,0.436l-1.122-0.427c1.294,0.108,1.794-0.21,3.406,0.443
								c0.603-0.029,1.218-0.169,1.823-0.276c0.116,0.447,1.263,0.219,2.149,0.417l-0.595,0.212c1.201,0.118,1.66,0.241,2.398,0.48
								c-0.712,0.305-1.083-0.209-1.409,0.117l1.32,0.271c0.013-0.245,0.87-0.346-0.066-0.595c1.26-0.287,1.939-0.646,4.986-0.603
								c1.381,0.43-1.489,0.358-0.923,0.775c3.218,0.194,3.884-0.998,5.709-1.165c2.358-0.048,2.188-0.42,4.546-0.669
								c-0.704,0.416,1.68-0.006,2.16,0.167l-0.881,0.473c0.702-0.227,1.411-0.252,1.235-0.006c-0.208-0.388,3.02-0.876,4.555-1.531
								l-0.358-0.234c1.205-0.476,2.84-1.184,4.165-1.496c1.902-0.664,1.335-0.894,2.645-1.776c0.893-0.046,0.941,0.312,0.809,0.755
								c-0.562,0.051-1.374,0.49-2.233,0.733c-2.348,0.973-4.062,2.335-6.621,2.758c-0.913,1.022,1.69-0.428,2.941-0.597
								c-0.024,0.057-0.105,0.097-0.196,0.133l0.309-0.069c-0.866,0.354-2.278,0.946-2.445,1.342
								c1.509-0.438,0.892-1.067,2.844-1.275c1.308-0.625,2.618-0.367,3.479-0.571c0.81-0.603,0.611-1.246,2.821-2.011l-0.784,0.806
								c2.469-1.007,0.906-1.08,3.174-1.994c-0.813,0.278,0.581-0.713-0.926-0.104c0.666-0.469,2.193-1.337,3.411-1.846
								c0.271-0.221-0.007-0.168-0.021-0.332c-1.433,0.373-1.867,1.407-3.167,1.436l-0.737,0.823
								c-1.321,0.357-1.588,0.048-0.904-0.438c-0.342,0.162-0.623,0.351-0.91,0.378c-0.486-0.582,1.586-0.375,1.771-1.114
								l-0.849,0.405c-0.574-0.314,1.896-1.123,2.938-1.744c1.303-0.441,2.45-0.959,2.697-0.705l-1.568,0.997
								c0.979-0.211,2.019-1.251,2.974-1.743l0.318-0.048l-0.125-0.041l0.593-0.189c0.802-0.508,1.847-1.446,2.643-1.843
								l-0.262-0.191l-0.003,0.207c-0.73,0.468-1.806,0.954-1.384,0.404c1.498-1.243,2.151-0.973,2.693-1.015
								c-0.11,0.632-1.599,1.051-2.341,1.731c0.753,0.055,1.69-1.058,3.562-1.931c-0.384,0.86-1.977,1.299-2.09,1.932
								c1.408-0.867,1.626-1.31,3.057-2.285c-0.006,0.36-1.389,1.34-1.136,1.51l1.016-0.514c-2.278,1.573,0.781,0.244-0.959,1.551
								c0.979-0.405,0.979-1.097,2.291-1.777c-0.454,0.084-1.592,0.485-0.634-0.54l1.31-0.865c0.666-0.224-0.945,1.453-0.02,0.973
								l1.182-1.176c-0.141-0.079-0.801,0.356-0.546-0.115c0.842-0.473,0.836-1.425,1.543-2.283
								c0.648-0.594,1.159-1.066,1.506-1.154c1.299-1.857,3.306-3.805,4.22-5.692c-0.66,1.252,0.425,0.296,1.14-0.198
								c-0.984,1.267-0.639,1.588-0.337,1.701c0.602-0.793,0.642-1.596,0.201-1.318c1.204-1.13,0.471-1.067,1.645-1.969
								c0.721-0.624,0.076,0.647,0.417,0.505c1.094-1.408-0.164-0.733,1.034-2.24c-0.008,0.122-0.094,0.28,0.064,0.205
								c0.675-0.801,1.129-1.852,1.06-2.163c1.191-0.545,1.647-2.64,2.018-2.158c1.09-2.286-0.465,0.162-0.401-0.381
								c0.27-1.03,1.377-2.574,1.751-3.053c-0.288,0.547-0.422,1.125-0.793,1.601l0.621-0.262c1.775-2.627,0.205-2.131,1.721-4.734
								c-0.42,1.514,0.082,0.604,0.038,1.44c0.095-0.477,1.147-2.609,0.284-1.419c0.484-1.028,0.868-1.726,1.25-2.418
								c0.29-0.973,0.507-2.061,0.422-2.709c0.523-1.489,1.163-2.52,1.569-3.196c0.569-3.292,1.841-6.216,1.884-9.777l-0.053,0.254
								c0.373-2.703-0.68,1.127-0.357-1.676c0.466,0.429,0.525-1.647,0.893-2.544c0.267-3.483-0.079-6.029-0.153-9.23
								c0.108,0.016,0.255,0.215,0.324,0.836c-0.13-2.458-0.208-4.461-0.703-6.632l0.08,0.085c-0.165-3.615-1.519-6.65-2.767-10.105
								c0.147,0.266,0.353,0.278,0.483,0.479c-0.386-1.833-1.607-4.583-2.485-5.616c-0.374-2.261-0.746-1.252-1.604-4.004
								c0.003-0.186,0.207,0.211,0.312,0.37c-0.513-1.316-1.011-2.183-1.651-3.455c-2.056-2.425-2.855-2.797-4.902-5.754
								c0.448-0.577,1.523,1.63,1.966,1.414c-0.482-0.55-0.996-0.946-1.497-1.825c0.595,0.306,0.218-0.002,0.682,0.17
								c-0.345-0.72-2.515-1.968-2.449-1.989c-0.128,0.054-0.021,0.302,0.443,0.846c-0.855-0.389-2.222-2.767-3.64-3.842
								c0.389,0.414,1.533,1.779,0.822,1.521c-1.521-1.767-2.539-1.854-3.853-2.801c-1.271-1.744,1.498,0.697,1.566,0.073
								c-0.128-0.383-0.468-1.284,0.302-0.769c-1.255-1.522-2.69-2.042-4.061-3.096l0.125-0.073
								c-1.844-1.603-4.336-2.543-5.847-3.909l0.794,0.738c-0.37-0.156-1.35-0.88-2.048-1.021c0.195-0.167-1.019-1.188-0.374-1.005
								c-1.328,0.119-4.989-2.326-6.376-2.188c-0.504-0.418,0.09-0.483,0.34-0.556c1.339,0.713,1.688,1.146,2.529,1.257
								c-1.106-0.603-1.831-1.219-1.588-1.274c-1.337-0.165-4.177-1.146-4.916-0.987c-0.751-0.574-1.511-1.037-1.081-1.264
								c-3.729-0.996,1.392,1.661-2.703,0.331c-1.756-0.948,1.989,0.116-0.561-0.833l0.497,0.097
								c-1.585-1.533-1.527,0.241-3.612-0.459c-0.146-0.604,1.577,0.105,0.213-0.73c-2.033-0.327-3.071,0.279-5.006-0.314
								l0.351-0.156c-1.262-0.315-3.753-0.669-5.044-0.761c-0.052-0.111,0.136-0.075,0.384-0.077
								c-2.364-0.46-1.016,0.162-2.936-0.416L75.1,8.24c0.969,0.29,2.815,0.752,4.082,0.585c-1.261,0.168,1.834,0.877,1.156,1.258
								l0.266-0.153c3.017,1.302,6.953,2.205,10.606,3.827c2.608,0.184,3.854,1.815,6.494,2.469
								c0.662-0.399,0.531,0.066,2.605,1.095c-1.11-0.528-0.348,0.347,0.281,0.793c0.47,0.078,0.979,0.294,1.49,0.512
								c0.353,0.345,2.479,2.362,3.566,2.641c1.036,0.958-0.384-0.022-0.703-0.087c0.285,0.585,1.074,0.439,1.335,0.878
								c0,0-0.059,0.042-0.196-0.016c1.806,1.135,2.629,2.149,4.271,3.622c0.515-0.318,1.872,1.171,2.657,1.772
								c-0.358-0.085,0.716,1.058,1.071,1.586l1.158,0.536c1.106,0.586,0.981,1.326,2.067,2.393l-0.147-0.358
								c0.828,0.766,2.439,3.254,2.791,4.33c6.706,7.92,7.472,14.093,9.938,24.332c0.315,0.654,0.205-0.558,0.578-0.066
								c0.27,1.067,0.331,1.312,0.479,2.3c0.044-0.9-0.168-0.725,0.034-0.641l-0.466-1.479c0.03-0.079,0.08,0.082,0.139-0.075
								c-0.155-0.497-0.392-1.068-0.487-1.723c0.337,0.897,0.831,1.08,0.914,2.391c-0.08-0.087-0.132-0.249-0.236-0.578
								c0.167,1.059,0.405,1.077,0.424,1.893c-0.009,0.998,0.106,0.737-0.075,0.891l0.042,3.069c0.747,1.48,0.224,3.399,0.147,3.885
								c-0.416-0.325-0.057-2.02-0.586-2.737l-0.213,1.098l0.321,0.053l-0.104,1.556l-0.061-0.087
								c0.124,0.181,0.247,0.371,0.133,0.77c-0.045,0.068-0.134,0.217-0.151,0.045l0.169,1.112c-0.33-0.65-0.107,0.969-0.49,0.796
								c-0.259,3.564,0.11,4.61-0.69,7.69c0.289-0.478,0.389,1.081,0.114,2.029c-0.211,0.537-0.326,0.657-0.395,0.277l-0.074,1.293
								c-0.859,1.443-0.911,3.029-1.864,5.19l-0.124-0.169c-0.088,0.879-0.171,1.843-0.695,3.039l-0.222-0.339
								c-0.854,1.361,0.178,1.374-0.727,2.912c0.337,0.14,0.956-0.814,1.346-0.845c-0.512,0.248-1.32,1.975-0.903,1.676
								c-0.572,1.696-0.499,1.129-0.639,1.229c-0.079,0.348-0.122,0.714-0.24,1.045c-0.627,1.088-0.621,0.131-0.586-0.359
								c-0.213,1.188-1.077,2.171-1.766,3.283l0.115-0.545l-0.892,1.472c-0.289,1.137-1.253,2.406-2.178,3.532l0.174-1.098
								c-0.78,0.689-0.159,0.523-0.245,0.791c-0.736,1.45-1.151,1.579-1.904,2.06C116.69,109.145,114.236,110.343,113.121,112.279z
								 M22.626,34.908l-0.197,0.159C22.676,34.564,22.792,34.258,22.626,34.908z M15.4,47.415c0.523-1.678,0.51-1.079,0.684-1.146
								c-0.774,1.532-1.104,2.432-1.731,3.814c0.165-0.199,0.3-0.2,0.398-0.245c-0.205,0.566-0.488,1.104-0.782,1.223
								C13.637,50.134,15.95,46.814,15.4,47.415z M33.86,20.109l-0.103,0.221l-0.006,0.005L33.86,20.109z M27.383,26.29
								c-0.165,0.014-0.362,0.13-0.583,0.292C27.011,26.556,27.198,26.52,27.383,26.29z M16.156,40.07
								c-0.377,0.266-0.784,1.123-1.077,1.746C15.254,41.545,15.589,41.069,16.156,40.07z M53.169,131.257
								c-0.537-0.091-1.574-0.212-0.726,0.214c0.477-0.027,1.217,0.522,1.652,0.386l0.082,0.05
								C53.703,131.583,53.318,131.315,53.169,131.257z M103.326,123.437c0.025,0.22-0.189,0.619,0.097,0.609l-0.133,0.068
								c0.146-0.016,0.267-0.028,0.204,0.065c0.373-0.2,0.772-0.406,0.991-0.62C104.264,122.934,104.947,122.358,103.326,123.437z"
								/>
							<path fill="#A346A3" d="M88.232,132.754c0.199-0.069,0.355-0.111,0.477-0.158C88.577,132.635,88.432,132.685,88.232,132.754z
								"/>
							<path fill="#A346A3" d="M104.412,123.605c0.011-0.056-0.442,0.167-0.989,0.44
								C103.568,124.046,103.851,123.938,104.412,123.605z"/>
							<path fill="#A346A3" d="M60.854,10.853l-0.486,0.162l1.027-0.005c1.616-0.56,1.678-0.77,2.05-1.143
								c-1.483,0.417-2.403,0.575-4.316,0.998L60.854,10.853z"/>
							<path fill="#A346A3" d="M59.607,8.91c-0.188-0.05-0.661-0.178-0.924-0.147l-0.22,0.242L59.607,8.91z"/>
							<path fill="#A346A3" d="M39.753,15.21l1.571-0.641C41.717,14.167,39.839,14.823,39.753,15.21z"/>
							<path fill="#A346A3" d="M47.798,15.038l0.697-0.52c-0.767,0.129-1.704,0.538-1.761,0.817
								C47.618,14.832,47.02,15.358,47.798,15.038z"/>
							<path fill="#A346A3" d="M35.889,17.583c-0.22,0.609-1.507,0.792-1.587,1.282C34.611,18.531,36.037,17.948,35.889,17.583z"/>
							<path fill="#A346A3" d="M38.866,20.021c0.621,0.041,1.128-0.724,2.037-1.164C40.184,19.277,39.014,19.628,38.866,20.021z"/>
							<path fill="#A346A3" d="M29.431,23.892c-0.138-0.282,0.437-0.694,1.088-1.146c-0.149,0.231-0.201,0.438-0.444,0.691
								c0.879-0.988,0.977-1.011,1.714-1.771c-0.94,0.51-2.258,1.414-2.354,1.049C28.965,23.379,28.584,24.393,29.431,23.892z"/>
							<path fill="#A346A3" d="M36.868,21.395c0.762-0.374,1.322-0.437,2.144-1.006c-0.25-0.066-0.682-0.115-1.639,0.57l0.17-0.499
								C36.496,20.868,38.14,20.579,36.868,21.395z"/>
							<path fill="#A346A3" d="M25.453,26.739l0.487-0.269c0.701-1.047,1.928-2.067,2.153-2.859
								C27.029,24.68,25.817,26.111,25.453,26.739z"/>
							<path fill="#A346A3" d="M33.218,23.415l0.158,0.452c0.955-0.69-0.16-0.065,0.1-0.413c0.303-0.161,0.721-0.446,0.86-0.668
								C33.333,23.681,34.046,22.552,33.218,23.415z"/>
							<path fill="#A346A3" d="M30.586,26.285l-0.94,1.192l1.171-0.459C31.948,25.669,30.689,26.753,30.586,26.285z"/>
							<path fill="#A346A3" d="M29.055,27.364l-0.181,0.057l-1.141,2.047C28.49,28.338,28.58,28.309,29.055,27.364z"/>
							<path fill="#A346A3" d="M11.498,49.25c0.101,0.316,0.75-0.919,0.368-0.429C11.798,48.509,10.993,50.196,11.498,49.25z"/>
							<path fill="#A346A3" d="M16.951,45.526c-0.386,0.525-0.968,2.559-1.208,3.442C16.091,47.936,17.249,45.499,16.951,45.526z"/>
							<path fill="#A346A3" d="M15.645,49.327c0.018-0.07,0.055-0.205,0.099-0.358C15.689,49.125,15.656,49.242,15.645,49.327z"/>
							<path fill="#A346A3" d="M14.826,86.695l0.129,0.249L14.826,86.695z"/>
							<path fill="#A346A3" d="M14.457,85.865c-0.156-0.589-0.477-1.754-0.722-1.914c0.246,0.931,0.544,1.732,1.091,2.744
								C14.682,86.3,14.674,85.77,14.457,85.865z"/>
							<path fill="#A346A3" d="M17.209,94.085c-0.285-0.37-0.463-0.968-0.577-0.751C16.652,93.602,17.204,94.415,17.209,94.085z"/>
							<path fill="#A346A3" d="M60.202,134.542c0.876,0.312,1.426,0.27,1.226-0.035C60.417,134.358,60.945,134.598,60.202,134.542z"
								/>
							<polygon fill="#A346A3" points="62.598,134.578 62.701,134.729 63.271,135.008 							"/>
							<path fill="#A346A3" d="M68.83,135.553c-0.049,0.044-0.214,0.092-0.388,0.119C68.804,135.637,69.108,135.6,68.83,135.553z"/>
							<path fill="#A346A3" d="M68.262,135.688l0.181-0.016L68.262,135.688z"/>
							<path fill="#A346A3" d="M67.849,135.594l-0.078,0.149c0.104-0.021,0.301-0.038,0.49-0.056
								C68.089,135.696,67.91,135.674,67.849,135.594z"/>
							<path fill="#A346A3" d="M70.726,135.62l-1.192-0.438c-1.257,0.199,1.416,0.231,0.172,0.678L70.726,135.62z"/>
							<path fill="#A346A3" d="M74.917,135.467c1.162,0.034,2.745-0.791,3.443-0.348c3.192-0.594-0.822-0.716,2.795-1.361
								c-3.462,0.175-1.633,1.167-4.755,1.2C77.924,135.133,75.416,135.3,74.917,135.467z"/>
							<path fill="#A346A3" d="M74.327,134.665c-0.173,0.271,1.27,0.162,1.708-0.049C75.613,134.627,74.874,134.339,74.327,134.665z
								"/>
							<polygon fill="#A346A3" points="81.214,134.6 82.221,134.603 82.449,134.393 							"/>
							<path fill="#A346A3" d="M84.93,133.978l-0.892,0.476C84.329,134.278,85.76,134.021,84.93,133.978z"/>
							<path fill="#A346A3" d="M90.112,133.02c0.912-0.17,1.491-1.056-0.304-0.359l0.429-0.102
								C90.158,132.693,91.225,132.622,90.112,133.02z"/>
							<path fill="#A346A3" d="M100.908,127.479c-0.555,0.277-1.164,0.698-0.987,0.764l1.442-0.921L100.908,127.479z"/>
							<path fill="#A346A3" d="M99.928,126.127c-0.685-0.12-1.344,0.783-2.399,1.122C98.688,126.79,98.564,126.873,99.928,126.127z"
								/>
							<path fill="#A346A3" d="M102.911,127.082c-0.326,0.366-1.014,0.606-1.406,0.784
								C101.802,127.976,102.819,127.365,102.911,127.082z"/>
							<path fill="#A346A3" d="M105.192,125.585c0.557-0.166,0.021,0.264,0.434,0.128c1.107-0.506,2.156-1.229,2.596-1.794
								c-0.366,0.031-0.991-0.129-0.699-0.571c-1.494,1.163-1.912,2.356-2.998,2.366c-0.308,0.517-0.673,0.949-1.024,1.415
								C104.929,126.513,104.275,126.118,105.192,125.585z"/>
							<path fill="#A346A3" d="M101.182,126.287l1.005-0.26c-0.293-0.109,0.361-0.503,0.791-0.818
								C102.484,124.875,101.677,125.99,101.182,126.287z"/>
							<path fill="#A346A3" d="M113.527,119.062c0.555-0.46,0.999-1.042,1.499-1.561l-0.521,0.468L113.527,119.062z"/>
							<polygon fill="#A346A3" points="114.669,118.256 114.812,118.329 115.808,116.965 							"/>
							<polygon fill="#A346A3" points="116.421,116.795 116.219,116.96 115.395,117.951 							"/>
							<path fill="#A346A3" d="M119.637,113.594l-0.424,0.157c-0.293,0.477-1.227,1.109-0.95,1.225
								C118.56,114.598,119.281,113.714,119.637,113.594z"/>
							<path fill="#A346A3" d="M123.238,98.599c-0.045,0.385,0.174,0.259,0.396,0.132l-0.056-0.677
								C123.513,98.211,123.383,98.521,123.238,98.599z"/>
							<path fill="#A346A3" d="M124.921,96.752l0.198-1.547c-0.726,1.539-0.503,1.91-1.195,3.239
								c0.422-0.497,0.62-1.387,1.008-2.085L124.921,96.752z"/>
							<path fill="#A346A3" d="M131.083,67.751c0.271,0.123,0.262-0.219,0.462,0.895c-0.232-1.53-0.356-2.839-0.541-4.588
								c-0.146,0.313-0.567-0.948-0.432-0.29l0.347,1.924l-0.216-0.275C130.618,66.795,131.096,66.285,131.083,67.751z"/>
							<path fill="#A346A3" d="M84.155,9.562c0.213-0.092-0.002-0.262-0.224-0.435C82.703,9.02,84.402,9.586,84.155,9.562z"/>
						</g>
					</g>
				</g>
			</g>
		</g>
	</g>
	<g>
		<g>
			<g>
				<path fill="#FFFFFF" d="M89.689,72.118c-0.018,8.831-3.51,17.108-9.785,23.625c-1.789,1.861-1.338,3.331,1.241,3.148
					c7.297-0.526,14.198-3.381,19.51-8.673c6.463-6.437,9.353-15.239,8.803-24.263c-0.158-2.582-2.65-5.081-5.23-5.247
					c-3.853-0.249-7.663,0.132-11.272,1.148c-2.494,0.704-3.862,3.501-3.547,5.896C89.599,69.19,89.694,70.647,89.689,72.118z"/>
				<path fill="#FFFFFF" d="M119.253,83.718c-1.201-0.872-2.441-1.661-3.723-2.366c-2.269-1.247-4.866,0.048-5.995,2.374
					c-1.604,3.305-3.748,6.337-6.414,8.986c-6.352,6.327-15.061,9.819-24.528,9.8c-0.211,0-0.42-0.002-0.634-0.012
					c-0.35-0.011,1.132,1.123,3.493,2.186c5.913,2.656,12.471,3.512,19.002,2.056c8.905-1.98,16.051-7.875,20.411-15.794
					C122.111,88.679,121.34,85.238,119.253,83.718z"/>
				<path fill="#FFFFFF" d="M64.22,102.481c-9.464-0.021-18.16-3.553-24.488-9.903c-2.651-2.667-4.782-5.707-6.371-9.014
					c-1.119-2.332-3.72-3.64-5.987-2.402c-1.285,0.699-2.531,1.484-3.731,2.354c-2.096,1.512-2.879,4.948-1.642,7.223
					c4.32,7.941,11.442,13.867,20.341,15.883c6.52,1.482,13.083,0.654,19.01-1.977c2.364-1.049,3.851-2.174,3.501-2.17
					C64.639,102.48,64.428,102.482,64.22,102.481z"/>
				<path fill="#FFFFFF" d="M61.753,98.852c2.582,0.19,3.036-1.285,1.252-3.154c-6.237-6.541-9.696-14.828-9.677-23.658
					c0.004-1.468,0.104-2.919,0.296-4.348c0.322-2.387-1.034-5.188-3.521-5.906c-3.629-1.05-7.465-1.454-11.349-1.219
					c-2.581,0.153-5.079,2.645-5.247,5.224c-0.59,9.019,2.262,17.833,8.699,24.296C47.516,95.421,54.434,98.312,61.753,98.852z"/>
			</g>
		</g>
		<g>
			<g>
				<path fill="#FFFFFF" d="M59.374,30.213c1.502,0.062,2.944,0.533,4.321,1.408c1.376,0.879,2.441,2.396,3.194,4.557
					c0.749,2.161,1.063,5.041,0.939,8.642c-0.126,3.603-0.972,8.126-2.537,13.574c-0.815,2.817-1.489,5.416-2.021,7.796
					c-0.533,2.38-0.877,4.666-1.033,6.857c-0.156,2.192-0.094,4.352,0.188,6.481c0.282,2.129,0.828,4.321,1.644,6.576
					c0.376,1.189,0.83,2.128,1.362,2.817c0.53,0.689,1.081,1.221,1.644,1.597c0.562,0.377,1.081,0.643,1.551,0.799
					c0.47,0.157,0.859,0.234,1.173,0.234c-1.001-0.812-1.863-1.973-2.583-3.475c-0.721-1.504-1.268-3.179-1.644-5.027
					c-0.376-1.846-0.597-3.787-0.658-5.824c-0.062-2.033,0.062-4.053,0.377-6.058c0.124-0.938,0.39-2.16,0.798-3.664
					c0.406-1.502,0.831-3.068,1.269-4.695c0.437-1.628,0.86-3.209,1.269-4.744c0.407-1.534,0.673-2.834,0.799-3.899
					c0.312,1.126,0.453,2.442,0.421,3.944c-0.031,1.503-0.139,3.04-0.328,4.604c-0.188,1.566-0.407,3.117-0.657,4.65
					c-0.251,1.536-0.471,2.898-0.658,4.087c-0.25,2.004-0.297,4.024-0.141,6.059c0.156,2.036,0.454,3.992,0.893,5.871
					c0.438,1.879,0.987,3.586,1.644,5.119c0.658,1.535,1.362,2.771,2.114,3.71c-0.752,0-1.456,0.032-2.114,0.094
					c-0.656,0.063-1.314,0.063-1.972,0c-0.657-0.062-1.302-0.218-1.926-0.47c-0.627-0.248-1.285-0.656-1.973-1.221
					c-1.127-1.064-2.1-2.504-2.912-4.32c-1.191-2.568-1.959-5.26-2.302-8.079c-0.345-2.819-0.391-5.65-0.141-8.5
					c0.249-2.85,0.704-5.684,1.362-8.502c0.656-2.817,1.423-5.543,2.301-8.173c1.189-3.569,1.863-6.635,2.02-9.206
					c0.156-2.567-0.016-4.696-0.516-6.386c-0.503-1.691-1.238-2.944-2.208-3.757c-0.971-0.813-1.989-1.282-3.053-1.409
					c-0.814-0.125-1.629-0.047-2.442,0.235c-0.812,0.281-1.551,0.72-2.209,1.314c-0.656,0.595-1.188,1.332-1.596,2.208
					c-0.406,0.878-0.61,1.879-0.61,3.007c-0.562-1.377-0.751-2.614-0.562-3.711c0.187-1.096,0.609-2.035,1.268-2.817
					c0.656-0.784,1.487-1.377,2.487-1.786c1.003-0.407,2.066-0.579,3.195-0.516H59.374z"/>
			</g>
			<g>
				<path fill="#FFFFFF" d="M84.063,30.213c1.128-0.063,2.191,0.109,3.193,0.516c1.001,0.408,1.833,1.002,2.489,1.786
					c0.658,0.783,1.081,1.722,1.269,2.817c0.188,1.097,0,2.334-0.564,3.711c0-1.128-0.203-2.128-0.608-3.007
					c-0.409-0.876-0.94-1.612-1.598-2.208c-0.658-0.594-1.395-1.033-2.209-1.314c-0.812-0.283-1.627-0.36-2.44-0.235
					c-1.064,0.127-2.083,0.596-3.055,1.409c-0.969,0.813-1.704,2.066-2.208,3.757c-0.498,1.69-0.67,3.819-0.516,6.386
					c0.158,2.57,0.832,5.637,2.02,9.206c0.879,2.63,1.645,5.356,2.302,8.173c0.658,2.818,1.112,5.652,1.362,8.502
					s0.204,5.681-0.141,8.5c-0.344,2.819-1.111,5.511-2.302,8.079c-0.813,1.816-1.786,3.256-2.911,4.32
					c-0.688,0.564-1.347,0.973-1.973,1.221c-0.627,0.252-1.271,0.408-1.926,0.47c-0.657,0.063-1.316,0.063-1.973,0
					c-0.658-0.062-1.362-0.094-2.114-0.094c0.752-0.939,1.456-2.175,2.114-3.71c0.656-1.533,1.206-3.24,1.644-5.119
					c0.438-1.879,0.737-3.835,0.892-5.871c0.158-2.034,0.11-4.055-0.14-6.059c-0.188-1.189-0.407-2.551-0.658-4.087
					c-0.251-1.533-0.47-3.084-0.659-4.65c-0.187-1.564-0.296-3.1-0.328-4.604c-0.031-1.502,0.111-2.818,0.423-3.944
					c0.127,1.065,0.392,2.365,0.8,3.899c0.408,1.535,0.831,3.116,1.268,4.744c0.438,1.627,0.861,3.193,1.269,4.695
					c0.408,1.504,0.674,2.725,0.798,3.664c0.314,2.005,0.439,4.025,0.376,6.058c-0.062,2.037-0.281,3.979-0.656,5.824
					c-0.378,1.849-0.925,3.523-1.645,5.027c-0.72,1.502-1.582,2.662-2.584,3.475c0.314,0,0.705-0.077,1.175-0.234
					c0.469-0.156,0.985-0.422,1.549-0.799c0.564-0.376,1.113-0.907,1.645-1.597c0.533-0.689,0.986-1.628,1.361-2.817
					c0.814-2.255,1.361-4.447,1.645-6.576c0.281-2.13,0.344-4.289,0.188-6.481c-0.155-2.192-0.501-4.477-1.034-6.857
					c-0.531-2.38-1.205-4.979-2.02-7.796c-1.564-5.448-2.41-9.972-2.538-13.574c-0.123-3.601,0.189-6.481,0.941-8.642
					c0.751-2.161,1.816-3.677,3.194-4.557c1.377-0.875,2.816-1.346,4.32-1.408H84.063z"/>
			</g>
		</g>
	</g>
</g>
</svg>
